<svg xmlns="http://www.w3.org/2000/svg" width="53.338" height="50" viewBox="0 0 53.338 50">
  <g id="cone" transform="translate(-9.99 -40.6)">
    <path id="Path_74" data-name="Path 74" d="M36.659,71.378c6.64,0,12.2-2.253,12.54-5.2-.991-2.765-2.068-5.791-3.124-8.757-.735,2.112-4.79,3.614-9.41,3.614s-8.681-1.5-9.41-3.614C26.2,60.384,25.115,63.4,24.13,66.175,24.462,69.125,30.019,71.378,36.659,71.378Zm0-18.625c3.124,0,6.02-.969,6.869-2.471-1.17-3.282-2.172-6.1-2.808-7.881-.425-1.187-2.335-1.8-4.06-1.8s-3.641.615-4.06,1.8c-.631,1.774-1.638,4.594-2.808,7.881C30.64,51.785,33.541,52.753,36.659,52.753ZM61.048,74.121,50.614,69.914l1.2,3.353c-.06,3.554-6.956,6.384-15.163,6.384s-15.1-2.83-15.163-6.384l1.2-3.353L12.265,74.121c-2.923,1.176-3.048,3.358-.272,4.844L31.614,89.486a11.979,11.979,0,0,0,10.091,0L61.325,78.965C64.1,77.485,63.976,75.3,61.048,74.121Z" transform="translate(0)" fill="#ffe200"/>
  </g>
</svg>
