<svg xmlns="http://www.w3.org/2000/svg" xmlns:xlink="http://www.w3.org/1999/xlink" width="1491" height="985" viewBox="0 0 1491 985">
  <defs>
    <linearGradient id="linear-gradient" x1="-2.632" y1="19.289" x2="-2.589" y2="19.289" gradientUnits="objectBoundingBox">
      <stop offset="0" stop-color="#858380"/>
      <stop offset="1" stop-color="#a19f9c"/>
    </linearGradient>
    <linearGradient id="linear-gradient-2" x1="-2.587" y1="18.875" x2="-2.546" y2="18.875" gradientUnits="objectBoundingBox">
      <stop offset="0" stop-color="#9d9b98"/>
      <stop offset="1" stop-color="#797775"/>
    </linearGradient>
    <linearGradient id="linear-gradient-3" x1="-2.853" y1="12.86" x2="-2.807" y2="12.86" gradientUnits="objectBoundingBox">
      <stop offset="0" stop-color="#797775"/>
      <stop offset="0.843" stop-color="#f2efea"/>
      <stop offset="1" stop-color="#f2efea"/>
    </linearGradient>
    <linearGradient id="linear-gradient-4" x1="-5.08" y1="29.542" x2="-4.993" y2="29.542" gradientUnits="objectBoundingBox">
      <stop offset="0" stop-color="#9d9b98"/>
      <stop offset="1" stop-color="#f2efea"/>
    </linearGradient>
    <linearGradient id="linear-gradient-5" x1="-2.613" y1="18.778" x2="-2.571" y2="18.778" xlink:href="#linear-gradient-4"/>
    <linearGradient id="linear-gradient-6" x1="-2.239" y1="11.72" x2="-2.201" y2="11.72" gradientUnits="objectBoundingBox">
      <stop offset="0" stop-color="#44433e"/>
      <stop offset="1" stop-color="#f2efea"/>
    </linearGradient>
    <linearGradient id="linear-gradient-7" x1="-4.898" y1="26.798" x2="-4.82" y2="26.798" gradientUnits="objectBoundingBox">
      <stop offset="0" stop-color="#f2efea"/>
      <stop offset="1" stop-color="#f2efea"/>
    </linearGradient>
    <linearGradient id="linear-gradient-8" x1="28.152" y1="-55.288" x2="28.257" y2="-55.288" gradientUnits="objectBoundingBox">
      <stop offset="0" stop-color="#faf6f2"/>
      <stop offset="1" stop-color="#fffbf7"/>
    </linearGradient>
    <linearGradient id="linear-gradient-9" x1="-5.498" y1="235.175" x2="-5.405" y2="235.175" gradientUnits="objectBoundingBox">
      <stop offset="0" stop-color="#b0aeab"/>
      <stop offset="1" stop-color="#faf6f2"/>
    </linearGradient>
    <linearGradient id="linear-gradient-10" x1="-5.559" y1="187.597" x2="-5.481" y2="187.597" gradientUnits="objectBoundingBox">
      <stop offset="0" stop-color="#fffbf7"/>
      <stop offset="0.527" stop-color="#fffbf7"/>
      <stop offset="1" stop-color="#b4b2af"/>
    </linearGradient>
    <linearGradient id="linear-gradient-11" x1="-3.467" y1="317.309" x2="-3.41" y2="317.309" gradientUnits="objectBoundingBox">
      <stop offset="0" stop-color="#ccc9c6"/>
      <stop offset="1" stop-color="#faf6f2"/>
    </linearGradient>
    <linearGradient id="linear-gradient-12" x1="-7.235" y1="23.735" x2="-7.098" y2="23.735" gradientUnits="objectBoundingBox">
      <stop offset="0" stop-color="#fffbf7"/>
      <stop offset="1" stop-color="#fffbf7"/>
    </linearGradient>
    <linearGradient id="linear-gradient-13" x1="-3.228" y1="18.363" x2="-3.177" y2="18.363" gradientUnits="objectBoundingBox">
      <stop offset="0" stop-color="#dad7d3"/>
      <stop offset="1" stop-color="#faf6f2"/>
    </linearGradient>
    <linearGradient id="linear-gradient-14" x1="-5.612" y1="27.564" x2="-5.513" y2="27.564" gradientUnits="objectBoundingBox">
      <stop offset="0" stop-color="#bbb8b5"/>
      <stop offset="1" stop-color="#faf6f2"/>
    </linearGradient>
    <linearGradient id="linear-gradient-15" x1="16.558" y1="-11.471" x2="16.62" y2="-11.471" gradientUnits="objectBoundingBox">
      <stop offset="0" stop-color="#faf6f2"/>
      <stop offset="0.512" stop-color="#fffbf7"/>
      <stop offset="0.677" stop-color="#fffbf7"/>
      <stop offset="0.901" stop-color="#ebe7e3"/>
      <stop offset="1" stop-color="#ccc9c6"/>
    </linearGradient>
    <linearGradient id="linear-gradient-16" x1="66.384" y1="-80.939" x2="66.629" y2="-80.939" gradientUnits="objectBoundingBox">
      <stop offset="0" stop-color="#791426"/>
      <stop offset="0.535" stop-color="#af1c3b"/>
      <stop offset="1" stop-color="#791426"/>
    </linearGradient>
    <linearGradient id="linear-gradient-17" x1="208.691" y1="-254.866" x2="209.469" y2="-254.866" xlink:href="#linear-gradient-16"/>
    <linearGradient id="linear-gradient-18" x1="202.152" y1="-251.279" x2="202.902" y2="-251.279" xlink:href="#linear-gradient-16"/>
    <linearGradient id="linear-gradient-19" x1="33.544" y1="-50.7" x2="33.673" y2="-50.7" xlink:href="#linear-gradient-16"/>
    <linearGradient id="linear-gradient-20" x1="27.882" y1="-27.037" x2="27.989" y2="-27.037" xlink:href="#linear-gradient-16"/>
  </defs>
  <g id="FootballPitchQatar" transform="translate(-215 -49)">
    <g id="Background_Pitch">
      <rect id="Green_BG" width="1491" height="985" transform="translate(215 49)" fill="#5f9131"/>
      <g id="Pitch_BG" transform="translate(245 73)" fill="#5f9131" stroke="#fff" stroke-width="6">
        <rect width="1430" height="935" stroke="none"/>
        <rect x="3" y="3" width="1424" height="929" fill="none"/>
      </g>
      <rect id="Color_BG5" width="143" height="923" transform="translate(388 79)" fill="#497523"/>
      <rect id="Color_BG4" width="143" height="923" transform="translate(674 79)" fill="#497523"/>
      <rect id="Color_BG3" width="143" height="923" transform="translate(960 79)" fill="#497523"/>
      <rect id="Color_BG2" width="143" height="923" transform="translate(1246 79)" fill="#497523"/>
      <rect id="Color_BG1" width="143" height="923" transform="translate(1526 79)" fill="#497523"/>
      <rect id="Color_BG4-2" data-name="Color_BG4" width="143" height="923" transform="translate(674 79)" fill="#497523"/>
    </g>
    <g id="_2022_FIFA_World_Cup" data-name="2022_FIFA_World_Cup" transform="translate(1576.89 -354.403)" opacity="0.85">
      <path id="Path_5" data-name="Path 5" d="M-624.879,851.39c-4.939-8.29-9.5-15.963-12.427-23.332a61.352,61.352,0,0,1-2.2-8.751c-1.659-8.072-.966-12.813,2.117-19.346.065-.137.135-.277.206-.418a14.824,14.824,0,0,1,5.806-1.846c5.163-.509,13.93.8,17.282,10.23,3.537,9.963-4.014,29.388-10.781,43.462m31.885-56.184c-.337-.648-1.586-2.99-2.016-3.792l-.146-.267c-5.454-10.014-5.638-8.117-9.042-8.719-.127-.022-.257-.055-.384-.087-3.877-.893-10.541-3.418-13.8-4.614-3.365-1.232-12.219,1.418-17.934,1.98a12.991,12.991,0,0,0-3.479.759c-2.628,1.02-3.281,2.753-4.367,4.172a2.708,2.708,0,0,1-1.665,1.222.242.242,0,0,0-.036.005c-4.446,1.594-14.95,14.552-12.68,32.432a28.527,28.527,0,0,0,1,5.137c4.343,17.16,18.876,40.173,22.445,46.7-2.63,6.052-8.242,18.478-10.032,30.182a38.972,38.972,0,0,0-.535,5.343c-.238,5.949.877,11.393,4.327,15.3.022.024.677.727.707.758a14.7,14.7,0,0,0,5.937,3.507c2.963,1.275,5.216.562,7.4.192a15.453,15.453,0,0,0,3.026,1.4,22.119,22.119,0,0,0,16.476-1.4c4.383-1.424,6.381-4,7.632-7.985,1.261-3.757,3.192-11.423-1.178-22.768-1.963-4.9-5.911-12.567-11.995-23.712l-.04-.065c4.878-9.23,17.938-32.069,20.263-38.743.127-.353.236-.693.345-1.034,3.949-10.1,6.527-23.469-.232-35.909" transform="translate(5.897)" fill="#fff"/>
      <path id="Path_6" data-name="Path 6" d="M-630.379,871.761c-1.408-2.715-4.489-8.63-5.147-10.036a89.751,89.751,0,0,0-9.04,33.953c.075,3.462,0,8.711,4.9,10.947,6.5-8.846-4.9-22.063,9.292-34.864" transform="translate(7.69 10.579)" fill="#aca9a6"/>
      <path id="Path_7" data-name="Path 7" d="M-615.209,833.594c1.675-8.319,5.852-15.413.548-26.976-4.369-9.519-11.888-12.926-19.785-11.131h0c5.167-.509,13.935.8,17.284,10.23,3.537,9.963-4.014,29.388-10.781,43.462-.154.331-.323.661-.481.99,3.289,5.709,5.981,10.622,9.193,16.425,0,0,4.329-6.987,6.127-10.151-3.687-8.543-3.153-17.667-2.107-22.849" transform="translate(8.96 2.211)" fill="#aca9a6"/>
      <path id="Path_8" data-name="Path 8" d="M-595.169,807.634c0-.287,0-.58-.011-.855v-.047c0-.125-.008-.236-.008-.359-.046-1.245-.133-2.323-.252-3.214a13.927,13.927,0,0,0-.42-2,22.989,22.989,0,0,0-3.846-6.274,84.671,84.671,0,0,0-7.692-8.22,8.5,8.5,0,0,0-.818.42c-3.586,2.147-3.5,5.062-15.958-.9-1.881-.9-4.822-.331-6.468-.222,12.593,9.353,26.414,8.953,35.47,21.673" transform="translate(9.437 1.039)" fill="#bcbab7"/>
      <path id="Path_9" data-name="Path 9" d="M-604.8,842.834c.481-.727.917-1.4,1.307-2.016.465-.762.907-1.543,1.325-2.333q.285-.538.554-1.085c5.113-10.292,6.547-22.3,6.474-29.77-6.408-18.619-25.093-10.316-31.077-21.924-.1.005-4.58.267-4.676.277.293.374.6.743.915,1.111,2.372,2.709,7.929,8.206,13.906,9.609s10.995,2.275,16.041,9.791-.321,18.118-5.046,28.525c-1.885,4.151-2.073,8.321-2.349,12.438.768-1.062.935-2.3,1.846-3.521.265-.36.525-.729.78-1.1" transform="translate(9.406 1.042)" fill="#ccc9c6"/>
      <path id="Path_10" data-name="Path 10" d="M-598.739,806.464c-5.048-7.519-10.06-8.391-16.041-9.793s-11.533-6.9-13.906-9.611c-.319-.364-.622-.737-.915-1.107-4.123.4-7.43,3.705-9.662,8.434a31.535,31.535,0,0,0-1.913,5.315,14.142,14.142,0,0,1,7.577-3.078c7.894-1.8,15.417,1.61,19.783,11.133,5.305,11.559,1.127,18.657-.55,26.972-1.046,5.182-1.578,14.306,2.107,22.849a79.915,79.915,0,0,1,6.125-10.153c.275-4.121.461-8.292,2.347-12.438,4.727-10.409,10.092-21.007,5.048-28.525" transform="translate(8.115 1.073)" fill="#bbb8b5"/>
      <path id="Path_11" data-name="Path 11" d="M121.059-1382.248c-.1.006-.194.02-.291.024-4.123.408-7.426,3.705-9.662,8.438a31.339,31.339,0,0,0-1.909,5.319,11.151,11.151,0,0,1,1.766-1.236,14.9,14.9,0,0,1,5.81-1.846c5.163-.507,13.934.8,17.28,10.228,3.539,9.965-4.012,29.39-10.779,43.464,3.285,5.709,5.3,9.329,9.022,15.407s16.1-24.544,16.28-24.909c5.111-10.292,7.959-22.914,7.2-33.028-1.216-16.219-11.345-21.033-11.476-21.154a8.211,8.211,0,0,0-.818.418c-3.584,2.149-3.677,5.577-16.132-.386a11.172,11.172,0,0,0-4.614-.8c-.62,0-1.2.024-1.675.055" transform="translate(-742.257 2169.249)" fill="url(#linear-gradient)"/>
      <path id="Path_12" data-name="Path 12" d="M-634.36,860.428c-5.575,7.775-14.132,49.326-1.691,47.87,19.53-2.735,4.279-42.571,1.691-47.87" transform="translate(7.955 10.416)" fill="#9a9794"/>
      <path id="Path_13" data-name="Path 13" d="M121.059-1382.248c-.1.006-.194.02-.291.024-4.123.408-7.426,3.705-9.662,8.438a31.339,31.339,0,0,0-1.909,5.319,11.151,11.151,0,0,1,1.766-1.236,14.9,14.9,0,0,1,5.81-1.846c5.163-.507,13.934.8,17.28,10.228,3.539,9.965-4.012,29.39-10.779,43.464,3.285,5.709,6.115,11.539,9.333,17.34s17.262-29.921,17.441-30.287c5.115-10.294,7.311-22.344,6.478-29.77-.852-7.547-2.327-10.248-4.18-13.03-.648-.974-7.917-7.814-8.048-7.935a8.161,8.161,0,0,0-.818.418c-3.584,2.149-3.677,5.576-16.132-.386a11.172,11.172,0,0,0-4.614-.8c-.62,0-1.2.024-1.675.055" transform="translate(-742.257 2169.249)" fill="url(#linear-gradient-2)"/>
      <path id="Path_14" data-name="Path 14" d="M128.885-1377.76c-5.309.055-9.193,1.784-9.319,3.018,24.8.812,26.792,18.163,2.547,62.01-9.193,16.625-12.844,31.909-12.89,42.177v.386c.028,6.474,1.519,10.884,3.963,12.272a5.451,5.451,0,0,0,2.622.713h.152c3.836-.053,7.387-4.081,4.9-9.228-3.1-6.4-.481-19.6,7.442-34.026s35.612-54.091,18.562-70.2a25.6,25.6,0,0,0-17.458-7.117Z" transform="translate(-742.254 2169.819)" opacity="0.28" fill="url(#linear-gradient-3)"/>
      <path id="Path_15" data-name="Path 15" d="M-633.413,792.743a21.023,21.023,0,0,1,4.311-.857,25.633,25.633,0,0,1,4.41-.085,20.75,20.75,0,0,1,8.525,2.345,17.644,17.644,0,0,1,6.492,6.111,24.048,24.048,0,0,1,1.992,4.046,32.014,32.014,0,0,1,1.224,4.325c1.21,5.909.656,12.029-.572,17.853a99.914,99.914,0,0,1-5.414,16.983c-2.226,5.487-4.82,10.785-7.456,16.023l-4.01,7.8-3.933,7.795a114.208,114.208,0,0,0-6.668,15.922,39.6,39.6,0,0,0-1.057,4.139,26.971,26.971,0,0,0-.584,4.2,18.533,18.533,0,0,0,1.273,8.385l-.341.18a17.523,17.523,0,0,1-2.646-8.559,33.493,33.493,0,0,1,.77-9,65.168,65.168,0,0,1,2.458-8.624c.972-2.816,2.113-5.557,3.289-8.27,4.753-10.825,10.347-21.1,15.308-31.576,1.224-2.626,2.44-5.25,3.515-7.925a83.639,83.639,0,0,0,2.909-8.127c1.632-5.489,2.557-11.276,1.719-16.944a26.223,26.223,0,0,0-.98-4.165,23.085,23.085,0,0,0-1.725-3.9,16.744,16.744,0,0,0-5.929-6.034,20.162,20.162,0,0,0-8.19-2.6,25.818,25.818,0,0,0-4.361-.093,21.153,21.153,0,0,0-4.319.683Z" transform="translate(8.523 1.799)" fill="#797775" opacity="0.33"/>
      <path id="Path_16" data-name="Path 16" d="M103.442-1275.541c0,8.527,3.955,13.514,7.107,15.538a9.246,9.246,0,0,0,4.513,1.139h.477a10.256,10.256,0,0,0,2.2-.275c4.86-1.184,8.539-6.06,8.624-15.131v-.654a53.22,53.22,0,0,0-1.919-12.834c-.432-1.654-3.881-9.135-4.567-10.46-1.408-2.713-4.648-9.1-5.307-10.5-5.634,12.735-11.013,28.671-11.125,33.182" transform="translate(-742.979 2178.48)" opacity="0.55" fill="url(#linear-gradient-4)"/>
      <path id="Path_17" data-name="Path 17" d="M111.106-1373.673a31.681,31.681,0,0,0-1.909,5.319,10.985,10.985,0,0,1,1.768-1.236,14.878,14.878,0,0,1,5.8-1.846c5.167-.507,13.934.8,17.286,10.228,3.537,9.965-4.014,29.39-10.781,43.464,3.285,5.709,6.327,11,9.537,16.8s17.058-29.384,17.237-29.75c5.115-10.292,9.9-29.582,1.943-42.517a38.673,38.673,0,0,0-7.02-8.165,5.64,5.64,0,0,0-1.491.365c-3.584,2.149-2.339,3.893-15.031-1.545a8.15,8.15,0,0,0-3.24-.644c-5.862,0-12.225,5.547-14.1,9.523" transform="translate(-742.257 2169.137)" opacity="0.44" fill="url(#linear-gradient-5)"/>
      <path id="Path_18" data-name="Path 18" d="M125.811-1382.395c-4.129.03-8.753,3.4-10.474,5.333-2,2.248-5.058,6.705-5.563,8.607a14.167,14.167,0,0,1,7.573-3.082c5.167-.507,13.934.8,17.286,10.228,3.537,9.965-4.014,29.39-10.781,43.464-.158.331-.321.663-.481.99-.679,1.206-8.668,16.569-8.949,17.373-4.935,14.234-9.71,28.82-9.822,33.329,0,7.721,2.737,16.387,10.413,16.508h.325a12.245,12.245,0,0,0,2.254-.254c7.3-1.491,9.119-13.423,8.022-19.57a68.4,68.4,0,0,0-2.467-10.2c-.111-.208,14.5-29.075,15.546-30.917,1.275-2.255,11.757-19.845,11.935-20.211,5.115-10.292,6.967-22.316,6.476-29.77-.172-2.624-2.816-10.589-4.533-12.747-3.365-4.22-8.232-7.961-8.511-7.8-3.584,2.149-3.02,3.921-15.953-.9a6.293,6.293,0,0,0-2.163-.382Z" transform="translate(-742.834 2169.238)" opacity="0.44" fill="url(#linear-gradient-6)"/>
      <path id="Path_19" data-name="Path 19" d="M116.439-1373.975a29.715,29.715,0,0,0-4.442,1l-.77,1.18-.459,1.059a14.9,14.9,0,0,1,5.81-1.846c5.163-.507,13.934.8,17.28,10.228,3.539,9.965-4.012,29.39-10.779,43.464-.147.307-.3.61-.444.915,1.089.915,1.947,1.61,1.947,1.61.2-.337.329-.614.511-.96,6.967-14.52,13.787-35.083,10.088-45.494a16.064,16.064,0,0,0-7.395-9c-.218-.119-1.535-.755-1.992-.929-.222-.091-.444-.174-.667-.253-.434-.151-1.782-.519-2-.568a19.3,19.3,0,0,0-2.606-.412c-.661-.063-1.337-.091-2-.091-.7,0-1.4.03-2.073.1" transform="translate(-742.06 2170.282)" fill="url(#linear-gradient-7)"/>
      <path id="Path_20" data-name="Path 20" d="M-615.855,866.8c-.543-.909-.865-1.408-.867-1.41-.2-.344-.4-.671-.594-1-7.509-13.5-15.6-25.259-19.991-36.325a62,62,0,0,1-2.2-8.749c-1.657-8.076-.964-12.817,2.119-19.348,2.965-6.286,11.93-14.13,16.946-11.728,10.817,5.179,12.256,2.679,14.864.553.081-.062.285-.212.368-.289.057-.043.388-.258.444-.3,28.358,21.8-2.042,63.927-11.084,78.6m-17.3,51.081a8.266,8.266,0,0,1-2.145.065,7.683,7.683,0,0,1-3.347-1.341,8.536,8.536,0,0,1-3.224-4.339c-1.761-5.274-1.392-15.765,8.026-39.523.98,2.135,1.9,4.143,2.309,4.967a63.206,63.206,0,0,1,6.765,27.184c-.588,7.6-4.252,12.213-8.385,12.987M-592.994,795.2c-.337-.646-1.584-2.986-2.016-3.792l-.147-.269c-5.454-10.013-5.638-8.111-9.046-8.713-.121-.022-.253-.059-.38-.089-3.878-.891-10.545-3.42-13.8-4.612-3.361-1.234-12.215,1.414-17.93,1.974a13.2,13.2,0,0,0-3.479.758c-2.628,1.022-3.281,2.755-4.367,4.174a2.7,2.7,0,0,1-1.667,1.22.075.075,0,0,0-.034.011c-4.446,1.592-14.949,14.551-12.68,32.428a28.442,28.442,0,0,0,1,5.141c4.345,17.158,18.878,40.175,22.447,46.7-2.63,6.054-8.242,18.478-10.032,30.18a39.069,39.069,0,0,0-.535,5.341v0c-.24,5.949.873,11.4,4.327,15.3.022.022.677.727.709.758a14.726,14.726,0,0,0,5.937,3.509c2.961,1.273,5.214.558,7.391.186a15.449,15.449,0,0,0,3.032,1.4,22.1,22.1,0,0,0,16.474-1.4c4.383-1.422,6.377-3.994,7.632-7.981,1.261-3.755,3.192-11.424-1.176-22.768-1.966-4.9-5.913-12.571-12-23.714l-.04-.065c4.876-9.23,17.936-32.067,20.265-38.743.125-.351.234-.691.343-1.03,3.949-10.106,6.527-23.475-.232-35.913" transform="translate(5.897 0)" fill="#efece8"/>
      <path id="Path_21" data-name="Path 21" d="M-609.536,841.2c-.41.661-1.456,2.226-2.757,4.155-3.244,5.487-6.327,10.141-8.353,13.429.659,1.063,2.129,3.458,2.757,4.6-.081-.145-.156-.285-.234-.432l-.042-.065c.313-.59.661-1.24,1.038-1.939.014-3.711,6.327-16.863,7.591-19.746" transform="translate(10.691 8.004)" fill="#dad7d3"/>
      <path id="Path_22" data-name="Path 22" d="M-621.663,779.985c-2.394-1.283-5.45-1.18-8.363-.671-.889.156-3.014.564-3.014.564s4.3,1.056,7.725,2.268c2.21.846,5.917,2.277,10.385-.079l.083-.192a18.529,18.529,0,0,1-6.816-1.889" transform="translate(9.136 0.195)" fill="#bbb8b5"/>
      <path id="Path_23" data-name="Path 23" d="M-633.8,780.852a23.7,23.7,0,0,0-2.452,1.069c-8.06,4.47-10.349,8.894-10.731,9.252-.23,1.557-.582,2.751-.756,4.644,1.491.768,8.721-.64,13.528-4.424.6-.5,1.224-.976,1.877-1.43.253-.2.485-.315.679-.461.031-.011.059-.073.089-.085,2.749-2.456,5.983-8.476,9.006-6.989.242.119.481.228.715.327-.357-.206-.715-.41-1.077-.606a14.687,14.687,0,0,0-6.951-2.01,11.4,11.4,0,0,0-3.927.713" transform="translate(7.292 0.343)" fill="url(#linear-gradient-8)"/>
      <path id="Path_24" data-name="Path 24" d="M-645.8,785.832a14.126,14.126,0,0,0-.857,2.859c-.141.759-.275,1.586-.406,2.471a35.542,35.542,0,0,1,10.733-9.254c.594-.293,2.226-1.412,2.951-1.652-5.513,1.5-8.591,3.743-11.884,4.739a3.533,3.533,0,0,0-.537.836" transform="translate(7.377 0.358)" fill="#f6f2ee"/>
      <path id="Path_25" data-name="Path 25" d="M-619.714,787.354c-8.424-4.723-12.767,1.283-12.769,1.285-.024.008-.051.091-.075.1-2.994,2.677-5.991,6.408-7.23,10.2,2.969-6.287,11.933-14.132,16.95-11.727,11.862,5.677,12.458,2.139,15.676-.034-2.351,1.42-4.3,4.8-12.551.174" transform="translate(8.29 1.021)" fill="#ebe7e3"/>
      <path id="Path_26" data-name="Path 26" d="M-608.642,788.048c-5.529,2.313-9.262-2.22-14.847-5.519-.236-.1-.473-.208-.715-.331-3.88-1.933-10.409,8.315-10.393,8.308,1.248-.919,5.808-7.424,14.233-2.7,8.254,4.626,9.484,2,11.727.418.113-.077.824-.592.824-.592s-.717.331-.824.414l-.005,0" transform="translate(8.941 0.571)" fill="#fffbf7"/>
      <path id="Path_27" data-name="Path 27" d="M-634.062,790.138c-4.81,3.658-12.036,5.19-13.526,4.426-.655,7.226-2.228,16.569-.628,27.126.7,4.61,1.634,9.517,2.41,14.373-1.972-15.51-2.39-34.129,11.743-45.926" transform="translate(7.145 1.598)" fill="#efece8"/>
      <path id="Path_28" data-name="Path 28" d="M-641.246,780.262c-2.628,1.022-3.281,2.753-4.367,4.173a2.711,2.711,0,0,1-1.667,1.222c.4-.085.877-.2,1.418-.331a25.384,25.384,0,0,0,4.167-1.555c1.337-.59,2.85-1.259,4.792-2.052,1.079-.44,3.361-1.269,4.563-1.594,1.218-.331,4.382-.869,4.555-.9,0,0,1.216-.156,1.61-.216-.113.008-13.391.766-15.07,1.256" transform="translate(7.35 0.201)" fill="#efece8"/>
      <path id="Path_29" data-name="Path 29" d="M123.865-1389.155c-.281.02-13.06.747-14.738,1.236-2.626,1.022-3.281,2.755-4.367,4.171a2.709,2.709,0,0,1-1.665,1.224c.4-.085.875-.2,1.412-.333a25,25,0,0,0,4.171-1.557c1.335-.588,2.85-1.254,4.794-2.047,1.075-.44,3.357-1.273,4.557-1.6,1.222-.327,4.264-.856,4.557-.9.4-.057,1.218-.16,1.612-.216-.113,0-.224.008-.333.018" transform="translate(-743.023 2168.387)" fill="url(#linear-gradient-9)"/>
      <path id="Path_30" data-name="Path 30" d="M-611.614,906.562c-.131.275-.234.515-.368.753a19.783,19.783,0,0,1-1.5,2.5c4.408-1.434,6.381-3.955,7.632-7.985-4.67,4.9-5.765,4.735-5.765,4.735" transform="translate(11.59 15.61)" fill="#d2cfcb"/>
      <path id="Path_31" data-name="Path 31" d="M-620.022,907.294c-3.511-1.539-6.333,1.479-8.1,3.309a22.118,22.118,0,0,0,16.476-1.406,20.072,20.072,0,0,0,1.5-2.493c-1.844,3.066-6.48,2.079-9.876.59" transform="translate(9.753 16.222)" fill="#dedbd7"/>
      <path id="Path_32" data-name="Path 32" d="M-628.432,904.077a27.2,27.2,0,0,0,2.184-13.4c-.6,7.579-4.26,12.211-8.383,12.985a8.183,8.183,0,0,1-2.145.065,7.706,7.706,0,0,1-3.351-1.339c-.18-.125-.353-.259-.523-.4a9.44,9.44,0,0,1-6.424-6.866c-.005-.034-.019-.061-.025-.093.032.531.081,1.059.145,1.58l.011.113a22.386,22.386,0,0,0,1.008,4.513c3.468,6.28,13.446,10.818,17.5,2.834" transform="translate(7.373 14.211)" fill="#ebe7e3"/>
      <path id="Path_33" data-name="Path 33" d="M-634.625,903.923a8.176,8.176,0,0,1-2.145.065,7.689,7.689,0,0,1-3.347-1.339,8.4,8.4,0,0,1-2.119-2.123c-2.846-2.947-4.414-8.2-4.666-11.771l-.011-.131v.005c-.107.947-.2,2.057-.216,3.077v0a31.5,31.5,0,0,0,.323,6.234.7.7,0,0,1,.024.115c3.151,5.99,11.894,11.965,17.714,1.875a8.84,8.84,0,0,1-5.559,3.986" transform="translate(7.365 13.953)" fill="#f2efea"/>
      <path id="Path_34" data-name="Path 34" d="M-599.437,790.584c-5.454-10.014-5.638-8.115-9.046-8.715-4.614.247-9.771,3.468-16.245.671,9.112,5.454,16.785-6.311,25.415,8.276.005.011.107.2.115.214-.038-.065-.065-.125-.1-.176-.077-.15-.131-.247-.143-.269" transform="translate(10.179 0.56)" fill="#e7e4e0"/>
      <path id="Path_35" data-name="Path 35" d="M141.32-1380.617l.162-.1c2.046-1.347,6.038-2.057,9.6,3.311-5.23-8.856-10.1-8.042-15.159-7.224-3.3.535-6.68,1.067-10.278-1.089,5.068,3.266,10.83,8.108,15.676,5.1" transform="translate(-740.194 2168.821)" fill="url(#linear-gradient-10)"/>
      <path id="Path_36" data-name="Path 36" d="M-636.192,910.248a19.547,19.547,0,0,0,5.8-5.757c-4.331,3.98-13.708,2.689-16.462-7.65a17.676,17.676,0,0,0,4.016,9.139c.022.024.677.729.709.758a14.681,14.681,0,0,0,5.937,3.509" transform="translate(7.403 14.984)" fill="#ccc9c6"/>
      <path id="Path_37" data-name="Path 37" d="M-620.507,777.727c-3.363-1.234-12.215,1.418-17.932,1.976a13.154,13.154,0,0,0-3.477.758c3.38-.735,3.614,0,13.518-1.111.049-.008,1.3-.129,1.618-.147a11.574,11.574,0,0,1,6.23.976,17.255,17.255,0,0,0,6.484,1.955c2.564.273,5,.087,7.357.206-3.874-.893-10.541-3.422-13.8-4.614" transform="translate(8.022 0)" fill="#f2efea"/>
      <path id="Path_38" data-name="Path 38" d="M127.266-1390.776c-4.169.063-10.753,1.85-15.332,2.3a13.009,13.009,0,0,0-3.479.759c3.418-.685,3.763-.008,13.522-1.113.046-.008,1.3-.129,1.612-.149a11.621,11.621,0,0,1,6.232.976,17.153,17.153,0,0,0,6.484,1.953,40.076,40.076,0,0,0,4.507.164c.964,0,1.913,0,2.854.044a144.516,144.516,0,0,1-13.8-4.612,6.8,6.8,0,0,0-2.163-.321Z" transform="translate(-742.351 2168.186)" fill="url(#linear-gradient-11)"/>
      <path id="Path_39" data-name="Path 39" d="M-616.106,781.606l-.269.137a10.7,10.7,0,0,1-9.31.222c.36.194.723.4,1.075.61,6.474,2.8,11.63-.428,16.245-.675-.121-.022-.253-.055-.38-.087-2.361-.119-4.792.069-7.361-.206" transform="translate(10.059 0.527)" fill="#ebe7e3"/>
      <path id="Path_40" data-name="Path 40" d="M-607.031,889.369c-4.192-18.5-13.314-30.543-21.348-40.411A59.785,59.785,0,0,1-640.615,823.4c.168,1.873.323,3.838.45,5.838,1.555,11.345,5.785,24.821,18.229,40.07,11.308,13.852,13.7,15.742,14.906,20.065" transform="translate(8.186 5.77)" fill="#fffbf7"/>
      <path id="Path_41" data-name="Path 41" d="M-601.127,790.2s.131.3.131.3c.032.071.784,1.848.812,1.917a10.977,10.977,0,0,1-.487,9.692c3.032,10.727-.147,23-5.07,34.159-2.145,4.887-2.065,9.268-2.687,12.357a.373.373,0,0,1,.022-.043c4.089-7.563,7.828-14.755,8.975-18.039.125-.353.234-.693.343-1.034,3.947-10.1,6.527-23.471-.23-35.909-.3-.562-1.273-2.4-1.808-3.4" transform="translate(12.224 1.605)" fill="#ebe7e3"/>
      <path id="Path_42" data-name="Path 42" d="M-610.8,787.05a30.514,30.514,0,0,1,6.838,7.7c-.6-4.268-1.681-8.5-5.252-8.141a4.561,4.561,0,0,0-1.3.309c-.014,0-.051-.054-.291.135" transform="translate(11.926 1.152)" fill="#dedbd7"/>
      <path id="Path_43" data-name="Path 43" d="M-599.795,792.821a41.378,41.378,0,0,0-3.315-4.323,6.743,6.743,0,0,0-4.876-2.222,5.036,5.036,0,0,0-2.61.683,1.337,1.337,0,0,0-.2.131c5.109-1.467,6.084,3.474,6.838,7.694a27.781,27.781,0,0,1,3.586,7.832,12.434,12.434,0,0,0,.578-9.795" transform="translate(11.927 1.113)" fill="#ccc9c6"/>
      <path id="Path_44" data-name="Path 44" d="M-627.782,910.581c2.22-1.814,4.048-3.792,6.387-3.715-1.683-.071-7.963,1.277-9.418,2.313a15.793,15.793,0,0,0,3.032,1.4" transform="translate(9.415 16.241)" fill="#d2cfcb"/>
      <path id="Path_45" data-name="Path 45" d="M-605.655,899.128a33.6,33.6,0,0,0-.578-5.087,22.756,22.756,0,0,0-3.567-8.862c-6.549-9.236-22.245-26.265-26.316-39.531,1.182,8.315-.834,18.314,2.5,23.225q1.7,2.189,3.273,4.309c7.989,9.533,17.286,15.062,16.993,28.586-.156,7.165-2.567,9.721-6.09,13.025.137.046.277.1.424.162,3.4,1.481,8.032,2.473,9.874-.59a28.389,28.389,0,0,0,3.489-15.237" transform="translate(8.75 8.562)" fill="#efece8"/>
      <path id="Path_46" data-name="Path 46" d="M-613.024,900.891c2.113-17.393-7.929-26.711-17.5-37.674-1.107-1.232-4.3-2.634-3.05.253,5.4,8.49,9,16.726,9.858,20.152,5.044,20.221-.5,26.617-6.717,31.216,1.454-1.038,7.735-2.386,9.414-2.313a4.3,4.3,0,0,1,1.289.244c2.866-2.689,4.864-4.1,5.992-8.385.16-.594.3-1.256.448-1.986.093-.471.2-.97.261-1.507" transform="translate(9.034 10.584)" fill="#e7e4e0"/>
      <path id="Path_47" data-name="Path 47" d="M-619.737,889.326a104.553,104.553,0,0,0-17.692-36.693c-.151.456-1.018,3.206-1.737,5.252.653,1.127,1.2,2.077,1.6,2.814.505.978.83,1.657,1.246,2.6.98,2.135,1.905,4.143,2.309,4.967a63.17,63.17,0,0,1,6.765,27.184c.406,7.573-3.384,16.262-9.914,20.34,2.963,1.277,5.216.562,7.395.19,5.315-1.935,15.07-6.434,10.026-26.657" transform="translate(8.368 9.438)" fill="#f2efea"/>
      <path id="Path_48" data-name="Path 48" d="M99.745-1377.6c-6.59,9.008-8.22,23.615-5.586,31.368,3.365,9.911,4.87,14.813,13.181,28.073.764,1.218-4.307-19.053-5.416-23.984-1.014-4.511-4.091-22.944,2.416-37.473a36.949,36.949,0,0,1,2.069-4.1,20.3,20.3,0,0,0-6.664,6.117" transform="translate(-744.295 2169.072)" fill="url(#linear-gradient-12)"/>
      <path id="Path_49" data-name="Path 49" d="M111.024-1334.46c-.121-.58-.2-.9-.2-.9s.065.321.2.9m-.444,25.431c.327.562.594,1,.875,1.507.131.234.275.477.408.709,11.157,19.5,28.647,33.733,18.819,49.132a18.218,18.218,0,0,1-3.311,4.161,4.891,4.891,0,0,1,4.408-1.111c1.307.186,2.456.374,3.731-1.359a10.742,10.742,0,0,0,1.254-2.3,14.967,14.967,0,0,0,.62-1.875c.2-.747,5.363,7.238,10.6,1.98,1.764-5.874,2.467-14.722-5.365-24.336-8.911-10.939-14.466-12.044-21.665-24.374-5.693-9.747-9.105-23.879-9.933-27.564.836,3.986,3.85,20.011-.444,25.431" transform="translate(-742.084 2175.138)" fill="url(#linear-gradient-13)"/>
      <path id="Path_50" data-name="Path 50" d="M101.52-1373.3a78.28,78.28,0,0,0-1,27.954c.7,4.616,4.117,14.694,4.891,19.552-1.966-15.508-9.343-45.183,14.29-56.437-5.628,1.4-16.69,9.692-18.179,8.931" transform="translate(-743.448 2169.258)" fill="url(#linear-gradient-14)"/>
      <path id="Path_51" data-name="Path 51" d="M-622.678,901.095a60.426,60.426,0,0,0-3.353-20.326,95.028,95.028,0,0,0-8.8-18.639c-1.762-2.967-3.6-5.935-5.327-8.943s-3.418-6.046-5.026-9.127a139.842,139.842,0,0,1-8.509-19c1.4,3.176,2.9,6.287,4.533,9.347,1.594,3.071,3.258,6.105,4.957,9.123,3.39,6.04,6.961,11.951,10.569,17.886a85.628,85.628,0,0,1,8.624,19.031,60.483,60.483,0,0,1,2.184,10.23,49.288,49.288,0,0,1,.151,10.418" transform="translate(6.545 5.979)" fill="#e1deda"/>
      <path id="Path_52" data-name="Path 52" d="M-649.166,834.4c1.594,3.069,3.262,6.107,4.957,9.123q1.049,1.865,2.119,3.719c2.048,3.262,4.339,6.62,6.852,9.878,11.527,14.959,18.772,30.2,13.549,44.9-.949,2.677-.471,3.933.731,3.984h.159c3.315-.135,11.4-8.484,11.535-21.053v-.614c-.089-8.634-3.949-19.189-15.577-30.412a150.277,150.277,0,0,1-28.853-28.873c1.4,3.174,2.9,6.286,4.529,9.343" transform="translate(6.545 5.979)" opacity="0.43" fill="url(#linear-gradient-15)"/>
      <path id="Path_53" data-name="Path 53" d="M-635.319,862.4c-.416-.947-.741-1.626-1.246-2.6-2.628,6.054-8.24,18.48-10.032,30.182a39.5,39.5,0,0,0-.533,5.345,9.512,9.512,0,0,0,.176,1.127c1.58,6.82,4.04,7.981,5.064,8.155a8.534,8.534,0,0,1-1.456-2.681c-1.759-5.276-1.392-15.769,8.026-39.523" transform="translate(7.369 10.337)" fill="#f2efea"/>
      <path id="Path_54" data-name="Path 54" d="M-603.487,890.008c-1.966-4.9-5.911-12.567-12-23.714l-.038-.062s-3.945-6.509-3.949-6.511c-7.508-13.5-15.591-25.255-19.989-36.325a61.6,61.6,0,0,1-2.2-8.749c0-.011,0-.022-.005-.034a.285.285,0,0,0-.011-.051c.428,2.741.317,5.579,1.2,9.945a59.888,59.888,0,0,0,12.236,25.562c8.038,9.864,17.159,21.912,21.352,40.409a95.821,95.821,0,0,1,1.663,12.6,26.633,26.633,0,0,1-2.842,14.439c.051.073,1.325,1.768,5.014-3.382a10.994,10.994,0,0,0,.749-1.359c1.261-3.755,3.194-11.421-1.176-22.768" transform="translate(8.052 4.662)" fill="#fffbf7"/>
      <path id="Path_55" data-name="Path 55" d="M-654,802.664a5.539,5.539,0,0,0,5.543,5.539,5.54,5.54,0,0,0,5.545-5.539,5.545,5.545,0,0,0-5.545-5.545A5.544,5.544,0,0,0-654,802.664m6.283-2.622a1.431,1.431,0,0,1-.917-1.321c.057,0,.115-.016.176-.016a3.9,3.9,0,0,1,2.4.834,1.428,1.428,0,0,1-1.156.6,1.417,1.417,0,0,1-.507-.093m-4.428,1.2a3.961,3.961,0,0,1,1.79-2.032,1.393,1.393,0,0,1,.2.711,1.429,1.429,0,0,1-1.43,1.432,1.4,1.4,0,0,1-.56-.111m2.836,2.828-.713-1.343a.409.409,0,0,1,.063-.463l1.061-1.093a.39.39,0,0,1,.457-.083l1.368.669a.389.389,0,0,1,.218.412l-.212,1.507a.4.4,0,0,1-.323.337l-1.5.261a.573.573,0,0,1-.069,0,.4.4,0,0,1-.352-.208m3.533-1.125a1.439,1.439,0,0,1,1.1-1.392,3.84,3.84,0,0,1,.178,1.113,3.858,3.858,0,0,1-.352,1.612,1.426,1.426,0,0,1-.925-1.333m-6.517.656a1.443,1.443,0,0,1,.362-.049,1.43,1.43,0,0,1,1.43,1.43,1.4,1.4,0,0,1-.3.863,3.942,3.942,0,0,1-1.5-2.244m3.481,2.988a1.421,1.421,0,0,1,1.41-1.246,1.431,1.431,0,0,1,1.16.6,3.928,3.928,0,0,1-2.216.677,3.339,3.339,0,0,1-.354-.034" transform="translate(6.506 2.474)" fill="url(#linear-gradient-16)"/>
      <path id="Path_56" data-name="Path 56" d="M-648.493,793.257l1.279,2.218L-645,794.2l-1.279-2.218Z" transform="translate(7.197 1.829)" fill="url(#linear-gradient-17)"/>
      <path id="Path_57" data-name="Path 57" d="M-651.291,810.986l1.846,1.78,1.78-1.838-1.844-1.786Z" transform="translate(6.846 3.982)" fill="url(#linear-gradient-18)"/>
      <path id="Path_58" data-name="Path 58" d="M-616.5,893.532a2.486,2.486,0,0,0-.353,1.25,8.942,8.942,0,0,0,.014,1.551.686.686,0,0,0-.84-.135,5.136,5.136,0,0,1,.162.667,3.731,3.731,0,0,1,.025.529,1.864,1.864,0,0,0-.893,1.384c-.011.115-.005.22-.005.329-.145-.456-.4-.921-.521-1.317a2.115,2.115,0,0,0-.513-.869.926.926,0,0,0-.2-.117c-.043.117-.077.241-.121.348a2.1,2.1,0,0,0-.048.216,3.112,3.112,0,0,0-.372-.358.844.844,0,0,0-.339-.127c-.253-.057-.3,0-.3.374,0,.121-.005.25-.011.408a.676.676,0,0,0-.848.247c.117.109.22.176.246.345a1.473,1.473,0,0,1-.117.624,1.558,1.558,0,0,0,.253,1.438.685.685,0,0,0,.915-.113,1.724,1.724,0,0,0,.25-1.56c-.113-.178-.192-.18-.412-.03.057.125.172.246.156.386a1.037,1.037,0,0,1-.24.5c-.154.166-.329.182-.453.046a.959.959,0,0,1-.019-1.062,1.581,1.581,0,0,1,.273-.368.817.817,0,0,1,.911-.131,1.136,1.136,0,0,1,.44.9c.059.753-.331,1.925-.3,2.673.024.693.521.966,1.1,1.079.253.049.909.125,1.044.174.685.245,1.279.208,1.644-.424.374-.648.578-1.869.978-2.513a1.184,1.184,0,0,1,.808-.6.811.811,0,0,1,.753.529,1.532,1.532,0,0,1,.075.453.97.97,0,0,1-.511.931c-.18.065-.329-.022-.386-.244a1.022,1.022,0,0,1,.024-.559c.05-.129.2-.18.313-.267-.125-.236-.2-.273-.378-.164a1.675,1.675,0,0,0-.465,1.483.674.674,0,0,0,.756.515,1.511,1.511,0,0,0,.863-1.151,1.54,1.54,0,0,1,.182-.6c.1-.141.222-.153.382-.192.011,0,.022-.032.044-.065-.089-.485-.422-.406-.683-.537.067-.149.121-.259.18-.372.172-.329.16-.4-.093-.461a.826.826,0,0,0-.36-.042,3,3,0,0,0-.5.151c.028-.1.046-.158.055-.21.016-.119.042-.247.057-.368a.46.46,0,0,1-.087,0,.6.6,0,0,0-.154.011,3.494,3.494,0,0,0-.747.42,4.1,4.1,0,0,0-1,1.079,3.125,3.125,0,0,1,.139-.45c.2-.521.166-.842-.036-1.091l-.23-.372a2.012,2.012,0,0,0,.073-.192c.107-.349.271-.62.4-.964a.625.625,0,0,0-.709-.333,5.344,5.344,0,0,0,.251-1.582,2.206,2.206,0,0,0-.279-1.143.1.1,0,0,0-.085-.054.242.242,0,0,0-.164.1M-626.572,900c-.089-.311-.18-.626-.277-.964a1.255,1.255,0,0,0-.836.733,10.585,10.585,0,0,0-.4,1.05c-.166-.143-.333-.293-.5-.444a1.576,1.576,0,0,0-.137,2.054,21.35,21.35,0,0,0,1.305,1.768,3.769,3.769,0,0,1,1.057,2.125,2.561,2.561,0,0,1-1.067,2.06,2.747,2.747,0,0,1-1.881.626c-.024,0-.087.222-.1.263.067.311.626.17.907.1,2.113-.535,3.477-2.139,2.844-3.763-.244-.646-1.067-1.671-1.382-2.3a2.506,2.506,0,0,1-.386-1.638,1.554,1.554,0,0,1,1.723-1.265,1.037,1.037,0,0,1,.9,1,1.127,1.127,0,0,1-.6.9.52.52,0,0,1-.584-.034.423.423,0,0,1-.049-.527.444.444,0,0,0,.028-.105.865.865,0,0,0-.687.816c.085.606,1.448,1.089,2.073.677a1.831,1.831,0,0,0,.677-1.945,1.6,1.6,0,0,0-1.149-1.24,1.748,1.748,0,0,1-.18-.083c.129-.325.234-.606.343-.915-.04,0-.081,0-.123,0-.709,0-1.107.445-1.511,1.054m4.844,2.493a2.027,2.027,0,0,0-1,1.01c.2-.054.39-.121.564-.15a.577.577,0,0,1,.7.491,1.389,1.389,0,0,1-.465,1.079c-.491.418-1.01.786-1.519,1.172a1.719,1.719,0,0,0-.814,1.547,2.363,2.363,0,0,0,.834,1.463,21.149,21.149,0,0,1-3.487,3.384c.341.1.683.194,1.024.269a35.467,35.467,0,0,0,3.26-3.115,2.772,2.772,0,0,0,2.85-.18,3.293,3.293,0,0,0,1.03-1.491c.168-.412.3-.83.44-1.25a1.991,1.991,0,0,1,1.046-1.2c.4-.154.636.042.671.56,0,.069.005.133.014.247a2.426,2.426,0,0,0,.45-1.024,1.244,1.244,0,0,0-.275-1.256,1.033,1.033,0,0,0-1.366.091,3.06,3.06,0,0,0-.665.743,10.843,10.843,0,0,0-.654,1.176,13.318,13.318,0,0,1-1.489,1.7,10.427,10.427,0,0,0,.939-1.812c.224-.535.408-1.077.586-1.624a2.435,2.435,0,0,0,.062-.263,2.34,2.34,0,0,0-.19.178,30.028,30.028,0,0,1-2.406,2.507c-.083.077-.147.164-.224.25a3.6,3.6,0,0,1,.675-1.463c.123-.125.238-.25.347-.384a5.05,5.05,0,0,0,.822-1.357.945.945,0,0,0-.323-1.25,1.217,1.217,0,0,0-.7-.222,1.89,1.89,0,0,0-.731.17m-8.46,1.521A8.81,8.81,0,0,0-631.28,904a5.162,5.162,0,0,1,2.949,4.155,2.932,2.932,0,0,0,.79-2.194,3.273,3.273,0,0,0-1.493-2.3c-.025.131-.04.206-.063.3-.471-.216-.766-.673-1.366-.77.1.3.184.555.275.824m18.239,2.481c-.034-.019-.085-.037-.141-.067a2.467,2.467,0,0,0-2.6.258c-.517.572-1.135,2.01-.188,2.63a.647.647,0,0,0,.768.109,1.483,1.483,0,0,0,.654-.768,1.194,1.194,0,0,0,.054-.218.845.845,0,0,0-.121.1c-.3.333-.483.42-.632.319a.937.937,0,0,1-.1-.943c.45-.806,1.3-1.077,1.717-.82.333.206.408.649.141,1.309a2.921,2.921,0,0,1-1.469,1.65,6.624,6.624,0,0,1-1.709.4,3.27,3.27,0,0,1-1.067-.121,2.877,2.877,0,0,0-1.461-.063,8.41,8.41,0,0,0-3.963,2.978c.186.011.37.014.556.014a6.111,6.111,0,0,1,.966-.913,4.909,4.909,0,0,1,3.151-1.214c.794.042,1.5.192,2.236.224a5.95,5.95,0,0,0,1.362-.034,2.931,2.931,0,0,0,1.856-1.537c-.178-.037-.343-.071-.527-.117a4.589,4.589,0,0,0,1.59-2.576c-.319.222-.614.406-.923.586a9.978,9.978,0,0,0,.529-1.236,1.174,1.174,0,0,0-.034-.994c-.212.353-.408.677-.644,1.044m-15.361,3a1,1,0,0,0-.065,1.434c.123.16.263.3.358.41.382-.315.711-.638,1.081-.921A2.133,2.133,0,0,0-625,908.3c-.028-.186-.081-.366-.131-.6-.741.661-1.489,1.23-2.182,1.8m-3.628.236c-.394-.016-.768-.036-1.147-.081a4.547,4.547,0,0,0,.669.628c-.18.153-.349.291-.519.428a7.688,7.688,0,0,1,4.493,1.6c-.172-1.083-1.707-2.543-3.569-2.808.022.075.044.146.071.232m7.208,2.317a10.882,10.882,0,0,1-1.028.939,17.647,17.647,0,0,0,1.905.222,1.121,1.121,0,0,0,.214-.125,6.3,6.3,0,0,0,.929-.909c.212-.236.372-.505.576-.757s.406-.469.616-.719a4.136,4.136,0,0,0-3.212,1.349m6.751-.047a9.566,9.566,0,0,0-3.529,1.246,24.136,24.136,0,0,0,5.222-.784,2.02,2.02,0,0,0-1.394-.473c-.1,0-.2.005-.3.011" transform="translate(9.256 14.557)" fill="url(#linear-gradient-19)"/>
      <path id="Path_59" data-name="Path 59" d="M-628.425,858.943c-.06.008-.109.04-.113.1v.019a2.336,2.336,0,0,0,.43,1.194,5.594,5.594,0,0,0,1.155,1.281.664.664,0,0,0-.43.721c.315.232.624.382.923.632.628.515.951.24,1,.008.014-.083-.083-.234-.228-.408a.661.661,0,0,0,.44.2c.275-.061.461-.188.253-.62-.111-.22-.311-.471-.42-.7a6.8,6.8,0,0,1-.252-.7.714.714,0,0,0-.665.612,9.484,9.484,0,0,0-.909-1.4,2.688,2.688,0,0,0-1.052-.919.371.371,0,0,0-.073-.016Zm5.283,2.042a5.641,5.641,0,0,0,1.184,2.1,1.024,1.024,0,0,1,.075-1.164.879.879,0,0,0-.241-.863,1.621,1.621,0,0,0-.562-.465.508.508,0,0,0-.159-.024c-.24,0-.327.21-.3.422m3.739.5c-.129.1-.358.291-.487,1a5.36,5.36,0,0,0-.549-.531,1.112,1.112,0,0,0-.156.265,1.488,1.488,0,0,0,.182,1.139c.388.735.814,1.458,1.244,2.176.792,1.327,1.553,2.6,1.121,3.765.091-.005.121,0,.137-.005s.046-.048.069-.061a1.466,1.466,0,0,0,.6-1.953c-.444-.867-1.634-1.957-2.048-2.846a1.485,1.485,0,0,1-.085-1.3,1.054,1.054,0,0,1,1.1-.44,2.138,2.138,0,0,1,.543.244,1.257,1.257,0,0,1,.659,1.218c-.054.236-.258.337-.537.24a1.4,1.4,0,0,1-.594-.418c-.107-.147-.054-.352-.069-.533-.345-.034-.436.019-.445.291a1.533,1.533,0,0,0,1.105,1.254.885.885,0,0,0,1.105-.454,1.328,1.328,0,0,0-.467-1.442,1.855,1.855,0,0,1-.531-.63.765.765,0,0,1,.055-.549c.008-.019-.016-.046-.034-.091-.594-.25-.747.164-1.075.354-.107-.18-.192-.319-.277-.463-.141-.25-.224-.358-.329-.358a.438.438,0,0,0-.241.129m-4.642.747a.394.394,0,0,0-.059.473,2.433,2.433,0,0,0,1.054.97,5.875,5.875,0,0,1,2.2,1.824c.1.141.194.283.287.428-.493-.489-1.067-.937-1.588-1.392a2.344,2.344,0,0,0-1.559-.683.248.248,0,0,0-.224.265,2.879,2.879,0,0,0,.818,1.533c.4.489.808,1.052,1.248,1.582-.093-.079-.19-.153-.283-.232a7.805,7.805,0,0,1-1.733-1.96c-.236-.38-1.273-1.654-1.723-1.016-.162.23.087.689.568,1.059.428.325.865.6,1.3.911.008.523.208.859.832,1.313.36.255.721.451,1.079.7a.943.943,0,0,1,.3.317,1.557,1.557,0,0,0,.885.943,2.365,2.365,0,0,0,1.063.184.9.9,0,0,0,.669-.372,2.012,2.012,0,0,0,.03-1.913,2.638,2.638,0,0,0-.574-.677,1.289,1.289,0,0,1-.38-.469,8.2,8.2,0,0,0-.758-1.3c-.428-.594-.8-.786-1.214-.741a15.591,15.591,0,0,0-1.067-1.246,1.72,1.72,0,0,0-1-.552.247.247,0,0,0-.17.055m-2.911,3.777c0,.6.9.687,1.123.6.273-.1.448-.315.717-.412a2.838,2.838,0,0,1,.8.032,4.81,4.81,0,0,0-2.054-.8.517.517,0,0,0-.586.582m1.285,1.091a1.267,1.267,0,0,0-.271.137,4.25,4.25,0,0,0,.493.582,4.554,4.554,0,0,0-.652.148,1.139,1.139,0,0,0-.382.273c-.244.232-.206.325.192.586.141.091.269.184.448.3a.87.87,0,0,0-.333,1.091.727.727,0,0,1,.549-.025,1.974,1.974,0,0,1,.594.57,1.333,1.333,0,0,0,1.41.562.882.882,0,0,0,.521-1.075,1.538,1.538,0,0,0-1.176-1.182c-.275-.005-.335.081-.325.424.182.032.386-.011.527.1a1.383,1.383,0,0,1,.382.622c.077.287-.034.479-.273.517a1.251,1.251,0,0,1-1.172-.733,1.972,1.972,0,0,1-.208-.558,1.042,1.042,0,0,1,.507-1.073,1.492,1.492,0,0,1,1.293.166c.861.477,1.871,1.731,2.711,2.228a1.465,1.465,0,0,0,1.986-.471c.016-.022.054-.037.065-.065a1.342,1.342,0,0,1,.014-.139c-1.188.358-2.41-.483-3.685-1.357-.685-.475-1.382-.949-2.087-1.384a1.691,1.691,0,0,0-.867-.285,1.063,1.063,0,0,0-.259.032m9.973.616c-.636.329-.917,1.22-.331,2.362a5.336,5.336,0,0,0,.519.814A24.367,24.367,0,0,0-613,873.484c.523.5,1.014,1.048,1.511,1.6a4.546,4.546,0,0,1,1.079,3.192,3.67,3.67,0,0,0,.6-3.367,4.769,4.769,0,0,0-1.574-2.117c-.491-.432-1.006-.8-1.517-1.2a2.892,2.892,0,0,1-1.166-2.006c-.025-.616.356-.85,1.091-.646.1.024.151.04.317.087a3.111,3.111,0,0,0-1.174-1.1,2.282,2.282,0,0,0-1.18-.384,1.507,1.507,0,0,0-.683.164m-1.055,3.891a43.716,43.716,0,0,1,2.329,4.493,14.62,14.62,0,0,0,1.341,2.107,1.282,1.282,0,0,0,.814.362.552.552,0,0,1,.45.325,56.849,56.849,0,0,1,3.83,8.874.577.577,0,0,1,.016.335,1.747,1.747,0,0,0,.283,2.075c.36.456,1.024,1.378,1.283,1.357a14.169,14.169,0,0,0,.1-1.628,5.046,5.046,0,0,0-.162-1.45c-.083-.275-.386-.436-.59-.654-.146-.154-.36-.273-.428-.465a60.077,60.077,0,0,0-3.913-8.676.856.856,0,0,1-.1-.78,1.965,1.965,0,0,0-.283-1.568,13.084,13.084,0,0,0-2.828-3.27c-.636-.56-1.3-1.067-1.968-1.574-.083-.065-.174-.109-.333-.208.077.17.1.265.153.345m-2.873.707a2.017,2.017,0,0,0-.749,1.939,2.957,2.957,0,0,0,.923,1.85c.025-.3.019-.59.062-.84a.84.84,0,0,1,1.006-.731,2.046,2.046,0,0,1,1.271,1.157c.349.867.62,1.754.905,2.636a2.507,2.507,0,0,0,1.757,1.854,3.021,3.021,0,0,0,2.012-.259c-.283-.172-.5-.313-.733-.444a4.043,4.043,0,0,1-1.572-2.03,23.39,23.39,0,0,0-1.509-3.2,7.321,7.321,0,0,0-1.491-1.772,1.655,1.655,0,0,0-1.059-.45,1.381,1.381,0,0,0-.822.293m-5.579,6.977c-.45-.075-.907-.147-1.4-.226a1.786,1.786,0,0,0,.442,1.5,14.15,14.15,0,0,0,1.1,1.127c-.285.129-.578.25-.865.372a2.247,2.247,0,0,0,2.543,1.408,29.806,29.806,0,0,0,3.042-.6,5.354,5.354,0,0,1,3.349-.065,3.617,3.617,0,0,1,2,2.582,3.845,3.845,0,0,1-.325,2.757c-.014.028.2.232.281.283.129-.384.525-.978.606-1.376a4.216,4.216,0,0,0-3.883-5.252,27.6,27.6,0,0,0-2.941.063,3.579,3.579,0,0,1-2.319-.491,2.172,2.172,0,0,1-.594-2.939,1.475,1.475,0,0,1,1.816-.537,1.568,1.568,0,0,1,.788,1.3.706.706,0,0,1-.39.721.593.593,0,0,1-.7-.253,1.018,1.018,0,0,0-.113-.093,1.2,1.2,0,0,0,.634,1.351c.82.259,1.646-.8,1.493-1.832a2.555,2.555,0,0,0-1.408-2.117,1.9,1.9,0,0,0-2.341.42c-.077.075-.149.131-.214.186-.343-.358-.64-.661-.966-.986-.539.962-.2,1.776.368,2.7m4.648,1.56a1.756,1.756,0,0,0,1.464-2.289,4.855,4.855,0,0,0-2.016-1.9c1.151,1.317,1.616,2.747.552,4.192m11.914,1.658a13.626,13.626,0,0,1,.794,1.794,2.435,2.435,0,0,0,1.16-2.8,9.346,9.346,0,0,0-.816-1.7c-.232-.408-.523-.76-.772-1.154-.246-.378-.459-.78-.707-1.186a5.935,5.935,0,0,0,.341,5.038m-3.448,2.254a1.476,1.476,0,0,0,1.957.778c.277-.1.541-.22.737-.3-.256-.675-.547-1.273-.762-1.917a3.123,3.123,0,0,0-2.491-2.3c-.271-.046-.552-.062-.9-.1.568,1.329.994,2.618,1.458,3.842m-9.85-.123c.17.1.265.151.392.23-.517.547-1.293.729-1.717,1.5.461.008.861.011,1.271.016a13.78,13.78,0,0,0-.545,1.487c2.376-2.289,4.606-2.436,7.145-2.058-.085-.7-1.681-1.911-2.662-2.133a4.113,4.113,0,0,0-.917-.107,5.371,5.371,0,0,0-2.969,1.061m15.035.735a12.051,12.051,0,0,1,1.891-.612c-.042-.107-.079-.216-.121-.321-.107-.267-.224-.547-.341-.832a5.18,5.18,0,0,0-1.43,1.765m.125,1.574c-.036.011-.061.063-.125.159.955.17,1.309,1.01,1.487,1.982.552-.135.8-.61,1.044-1.04a8.137,8.137,0,0,0,.624.578q-.288-1.049-.652-2.149a3.6,3.6,0,0,0-.38-.025,5.063,5.063,0,0,0-2,.493m-8.3,3.349.358.008c-.21.529-.418,1.038-.657,1.531a6.27,6.27,0,0,0,1.188-.616c.125.325.234.618.343.915.763-2.509,2.551-3.943,4.347-5.386a2.316,2.316,0,0,0-.42-.034,6.637,6.637,0,0,0-5.159,3.582m5.836-1.7a4.954,4.954,0,0,0-1.513,1.933,1.674,1.674,0,0,0,.287,1.927c.624-.568,1.089-1.141.907-1.862.436-.024.852-.054,1.378-.091a2.487,2.487,0,0,1-.1-2.531.861.861,0,0,0-.087-.069c-.279.236-.586.452-.873.693m3.678,1.1a11.749,11.749,0,0,0,.871,1.426.838.838,0,0,0,1.048.3,1.2,1.2,0,0,0,.481-.394c-.043-.212-.091-.424-.141-.642a1.1,1.1,0,0,1-.772-.3,1.963,1.963,0,0,0-1.21-.4,2.462,2.462,0,0,0-.277.014m-3.291,2.588a1.087,1.087,0,0,1-.873.893.935.935,0,0,0,.968.345,1.09,1.09,0,0,0,.8-.6,2.336,2.336,0,0,0,.216-1.43,2.645,2.645,0,0,0-.162-.713,3.316,3.316,0,0,0-.947,1.507m3.9.721c.442.251,1.087-.04,1.442-.766-.588.162-.8-.208-1.1-.513a6.978,6.978,0,0,0-.947-.679,1.959,1.959,0,0,0,.606,1.958m-2.471-.119a1.237,1.237,0,0,1-.39,1.131,1.111,1.111,0,0,0,1.067-.25.937.937,0,0,0,.378-.85,1.905,1.905,0,0,0-.98-1.5c-.011.537-.1,1.024-.075,1.467m1.814,1.673a.262.262,0,0,0,.2.131h.06a.691.691,0,0,0,.246-.079c.271-.137.362-.291.321-.5a2.207,2.207,0,0,0-1.022-1.315,2.547,2.547,0,0,0,.2,1.765" transform="translate(9.701 10.23)" fill="url(#linear-gradient-20)"/>
      <path id="Path_60" data-name="Path 60" d="M-643.111,855.149l.808-.461-2.2-3.836-.808.461.846,1.479-4,2.3.5.879,4-2.3Zm3.606,4.41-3.957.628,2.523-3.125-.784-1.36-4.8,2.759.5.877,3.676-2.109.014.024-2.9,3.46.412.717,4.448-.754.014.019-3.672,2.111.5.877,4.8-2.757Z" transform="translate(7.201 9.215)" fill="#bcbab7"/>
      <g id="Group_4" data-name="Group 4" transform="translate(-705.864 945.273)">
        <path id="Path_61" data-name="Path 61" d="M-630.052,961.1c-1.1,0-1.571-1.467-1.571-5.506,0-2.1,1.02-2.62,3.929-2.62.764,0,1.374.005,1.959.016-.928,2.856-2.172,8.11-4.317,8.11m-5.9-2.754a11.84,11.84,0,0,0,.288,2.754h-15.384c-2.046,0-3.354-.473-3.354-2.361V953.5h4.845a16.226,16.226,0,0,0,.787-3.405H-654.4c.022-1.617.141-3.062.259-4.719A10.247,10.247,0,0,0-658.6,948.1v1.993h-2.49a32.51,32.51,0,0,0-.26,3.405h2.751V959c0,3.853,2.334,5.5,5.53,5.5h20.916c2.562,0,4.53-2.1,6.422-6.854V964.5h4.192V950.091c-1.886-.158-3.617-.265-5.5-.265-5.189,0-8.913,2.151-8.913,8.518m22.018-1.6v-1.414a35.491,35.491,0,0,0-.393-5.241h-4.063c.131,1.833.262,3.405.262,5.241V964.5h4.194c0-5.139,1.65-10.983,6.027-10.353a27.965,27.965,0,0,0-.391-4.326c-3.2.278-4.761,3.093-5.635,6.92M-671.7,961.1c-1.1,0-1.572-1.468-1.572-5.506,0-2.1,1.023-2.62,3.93-2.62.764,0,1.374.005,1.962.016-.931,2.856-2.172,8.11-4.32,8.11m-5.9-2.754c0,4.352,1.571,6.422,3.669,6.422,2.57,0,4.621-2.275,6.553-7.123v6.861h4.194V950.091c-1.888-.158-3.617-.265-5.506-.265-5.189,0-8.91,2.151-8.91,8.518m136.657-6.683c0-3.589-2.49-5.766-6.946-5.766a12.625,12.625,0,0,0-5.372,1.05,9.931,9.931,0,0,0-1.311,3.535A14.508,14.508,0,0,1-548.8,949.3c1.965,0,3.539.839,3.539,3.145,0,2.488-1.547,4.3-9.961,9.172a16.42,16.42,0,0,0,.263,2.885h13.889a15.838,15.838,0,0,0,.787-3.407h-11.822c5.906-2.02,11.167-4.129,11.167-9.436m-146.533,8.818-.216-.117c-2.515-1.335-5.9-3.378-5.9-7.1,0-3.41,2.2-5.008,4.85-5.008,2.936,0,4.717,2.07,4.717,5.69,0,2.492-1.372,4.69-3.454,6.536m8.041,4.287-6.9-3.682c3.908-1.42,6.773-4.221,6.773-8.192,0-5.348-4.011-8.045-9.173-8.045-4.743,0-9.3,3.04-9.3,8.911,0,4.953,3.774,7.914,7.914,10.089l13.314,6.946c0-3.066-.365-4.824-2.62-6.028m98.129-1.574c-1.177,0-4.848-2.385-4.848-8.777,0-3.148,1.836-5.112,4.848-5.112s4.851,1.964,4.851,5.112c0,6.392-3.67,8.777-4.851,8.777m0-17.3c-5.24,0-9.173,3.145-9.173,8.257,0,6.683,6.422,10.615,9.173,10.615s9.173-3.932,9.173-10.615c0-5.112-3.929-8.257-9.173-8.257m.059,7.146a11.755,11.755,0,0,0-2.4,2.29,11.833,11.833,0,0,0,2.4,2.29,12,12,0,0,0,2.4-2.29,11.921,11.921,0,0,0-2.4-2.29m24.056-1.38c0-3.59-2.492-5.766-6.949-5.766a12.63,12.63,0,0,0-5.372,1.05,9.958,9.958,0,0,0-1.311,3.535,14.527,14.527,0,0,1,5.768-1.177c1.965,0,3.539.839,3.539,3.145,0,2.488-1.547,4.3-9.96,9.172a16.489,16.489,0,0,0,.262,2.885h13.892a16.1,16.1,0,0,0,.785-3.407h-11.823c5.907-2.02,11.169-4.129,11.169-9.436m-35.386,0c0-3.59-2.487-5.766-6.943-5.766a12.609,12.609,0,0,0-5.372,1.05,9.85,9.85,0,0,0-1.311,3.535,14.5,14.5,0,0,1,5.766-1.177c1.964,0,3.536.839,3.536,3.145,0,2.488-1.547,4.3-9.959,9.172a16.392,16.392,0,0,0,.263,2.885H-592.7a15.838,15.838,0,0,0,.784-3.407H-603.74c5.9-2.02,11.166-4.129,11.166-9.436" transform="translate(706.846 -924.267)" fill="#fff"/>
        <path id="Path_62" data-name="Path 62" d="M-571.037,942.015q-.891.224-1.957.424a14.748,14.748,0,0,1-2.652.2,12.239,12.239,0,0,1-3.152-.422,8.465,8.465,0,0,1-2.87-1.358,7.155,7.155,0,0,1-2.093-2.46,7.81,7.81,0,0,1-.814-3.731,8.8,8.8,0,0,1,.669-3.551,6.96,6.96,0,0,1,1.859-2.541,7.864,7.864,0,0,1,2.828-1.512,12.036,12.036,0,0,1,3.551-.5,11.482,11.482,0,0,1,2.338.233q1.137.231,2.27.567l-.331,3.364a8.791,8.791,0,0,0-1.993-.824,7.892,7.892,0,0,0-2.06-.268,5.031,5.031,0,0,0-2,.38,4.5,4.5,0,0,0-1.526,1.045,4.65,4.65,0,0,0-.981,1.594,5.7,5.7,0,0,0-.342,2.014,5.149,5.149,0,0,0,.39,2.05,4.492,4.492,0,0,0,1.068,1.547,4.6,4.6,0,0,0,1.636.968,6.342,6.342,0,0,0,2.095.334,8.844,8.844,0,0,0,2.026-.234,12.867,12.867,0,0,0,1.847-.567Z" transform="translate(721.081 -926.56)" fill="#fff"/>
        <path id="Path_63" data-name="Path 63" d="M-557.771,936.441a7.068,7.068,0,0,1-.491,2.762,4.98,4.98,0,0,1-1.39,1.913,5.857,5.857,0,0,1-2.161,1.125,9.783,9.783,0,0,1-2.774.367,9.788,9.788,0,0,1-2.772-.367,5.863,5.863,0,0,1-2.159-1.125,4.981,4.981,0,0,1-1.39-1.913,7.07,7.07,0,0,1-.491-2.762V926.8h4.142v8.953a8.172,8.172,0,0,0,.122,1.457,3.727,3.727,0,0,0,.423,1.2,2.219,2.219,0,0,0,.813.823,2.551,2.551,0,0,0,1.312.3,2.567,2.567,0,0,0,1.316-.3,2.219,2.219,0,0,0,.813-.823,3.766,3.766,0,0,0,.423-1.2,8.461,8.461,0,0,0,.122-1.457V926.8h4.141Z" transform="translate(722.734 -926.531)" fill="#fff"/>
        <path id="Path_64" data-name="Path 64" d="M-553.307,933.969h1.068a4.93,4.93,0,0,0,1-.1,2.116,2.116,0,0,0,.811-.357,1.787,1.787,0,0,0,.547-.669,2.311,2.311,0,0,0,.2-1.011,2.232,2.232,0,0,0-.2-1,1.729,1.729,0,0,0-.547-.647,2.14,2.14,0,0,0-.811-.344,4.633,4.633,0,0,0-1-.1h-1.068Zm-4.143-7.171h4.943a9.029,9.029,0,0,1,5.28,1.236,4.471,4.471,0,0,1,1.692,3.864,4.488,4.488,0,0,1-1.626,3.684,7,7,0,0,1-4.545,1.325h-1.6v5.432h-4.143Z" transform="translate(724.483 -926.531)" fill="#fff"/>
        <path id="Path_65" data-name="Path 65" d="M-661.32,926.8h4.231l2.005,11.937h.045l2.09-11.937h5.256l2.182,11.937h.046l2.026-11.937h4.031l-3.476,15.544h-5.32l-2.2-11.935h-.046l-2.047,11.935h-5.368Z" transform="translate(711.453 -926.531)" fill="#fff"/>
        <path id="Path_66" data-name="Path 66" d="M-637.437,934.6a8.432,8.432,0,0,0,.2,1.86,5.111,5.111,0,0,0,.622,1.591,3.284,3.284,0,0,0,1.093,1.1,2.985,2.985,0,0,0,1.6.413,3,3,0,0,0,1.6-.413,3.281,3.281,0,0,0,1.088-1.1,5.153,5.153,0,0,0,.626-1.591,8.619,8.619,0,0,0,.2-1.86,8.82,8.82,0,0,0-.2-1.9,5.034,5.034,0,0,0-.626-1.584,3.237,3.237,0,0,0-1.088-1.079,3.062,3.062,0,0,0-1.6-.4,3.047,3.047,0,0,0-1.6.4,3.239,3.239,0,0,0-1.093,1.079,5,5,0,0,0-.622,1.584,8.646,8.646,0,0,0-.2,1.9m-4.277,0a10.529,10.529,0,0,1,.5-3.362,6.709,6.709,0,0,1,1.48-2.526,6.477,6.477,0,0,1,2.437-1.593,9.432,9.432,0,0,1,3.377-.558,9.425,9.425,0,0,1,3.372.558,6.458,6.458,0,0,1,2.439,1.593,6.747,6.747,0,0,1,1.482,2.526,10.532,10.532,0,0,1,.5,3.362,10.466,10.466,0,0,1-.5,3.341,6.789,6.789,0,0,1-1.493,2.538,6.485,6.485,0,0,1-2.45,1.6,9.315,9.315,0,0,1-3.349.558,9.318,9.318,0,0,1-3.365-.558,6.549,6.549,0,0,1-2.437-1.6,6.728,6.728,0,0,1-1.492-2.538,10.469,10.469,0,0,1-.5-3.341" transform="translate(713.912 -926.561)" fill="#fff"/>
        <path id="Path_67" data-name="Path 67" d="M-622.336,933.257h1.089c.328,0,.673-.011,1.036-.035a3.07,3.07,0,0,0,.981-.21,1.8,1.8,0,0,0,.722-.535,1.584,1.584,0,0,0,.289-1.026,1.42,1.42,0,0,0-.256-.878,1.591,1.591,0,0,0-.666-.524,3.553,3.553,0,0,0-.96-.244,9.106,9.106,0,0,0-1.147-.068h-1.089Zm-4.141-6.458h7.392a7.88,7.88,0,0,1,1.936.233,4.831,4.831,0,0,1,1.6.727,3.517,3.517,0,0,1,1.079,1.221,3.661,3.661,0,0,1,.39,1.738,4.215,4.215,0,0,1-.737,2.562,3.724,3.724,0,0,1-2.247,1.358v.043a1.766,1.766,0,0,1,.791.424,2.7,2.7,0,0,1,.522.722,7.164,7.164,0,0,1,.411,1c.128.378.286.806.482,1.282l1.512,4.228h-4.317l-.893-2.8q-.313-1-.59-1.649a4.129,4.129,0,0,0-.6-1.023,1.691,1.691,0,0,0-.737-.524,2.952,2.952,0,0,0-.988-.145h-.869v6.145h-4.141Z" transform="translate(715.824 -926.531)" fill="#fff"/>
        <path id="Path_68" data-name="Path 68" d="M-613.221,926.8h4.141v12.471h6.414v3.073h-10.554Z" transform="translate(717.487 -926.531)" fill="#fff"/>
        <path id="Path_69" data-name="Path 69" d="M-598.415,939.269h1.6a5.008,5.008,0,0,0,3.584-1.181,4.614,4.614,0,0,0,1.249-3.518,4.576,4.576,0,0,0-1.272-3.518,5.027,5.027,0,0,0-3.561-1.181h-1.6Zm-4.143-12.471h5.656a18.161,18.161,0,0,1,3.719.357,7.533,7.533,0,0,1,2.908,1.237,5.855,5.855,0,0,1,1.892,2.371,9.023,9.023,0,0,1,.68,3.74,8.719,8.719,0,0,1-.692,3.674,6.239,6.239,0,0,1-1.915,2.416,7.863,7.863,0,0,1-2.918,1.335,15.493,15.493,0,0,1-3.674.413h-5.656Z" transform="translate(718.825 -926.531)" fill="#fff"/>
        <path id="Path_70" data-name="Path 70" d="M-705.864,926.8v15.544h4.837v-5.614h3.483l1.239-3.4h-4.722v-3.148h5.864l1.234-3.385Z" transform="translate(705.864 -926.531)" fill="#fff" fill-rule="evenodd"/>
        <path id="Path_71" data-name="Path 71" d="M-693.943,942.341h4.837V926.8h-4.837Z" transform="translate(707.36 -926.531)" fill="#fff" fill-rule="evenodd"/>
        <path id="Path_72" data-name="Path 72" d="M-686.688,926.8v15.544h4.84v-5.614h3.48l1.239-3.4h-4.719v-3.148h5.861l1.236-3.385Z" transform="translate(708.27 -926.531)" fill="#fff" fill-rule="evenodd"/>
        <path id="Path_73" data-name="Path 73" d="M-668.269,937.267l-1.935-6.474-1.867,6.474Zm6.317,5.076h-4.886l-.632-2.089h-5.467l-.606,2.089H-678.3l5.663-15.544h5.03Z" transform="translate(709.322 -926.531)" fill="#fff" fill-rule="evenodd"/>
      </g>
    </g>
    <g id="Middle_Pitch">
      <line id="Line_1" data-name="Line 1" y2="935" transform="translate(960.5 73.5)" fill="none" stroke="#fff" stroke-width="5"/>
      <circle id="Ellipse_1" data-name="Ellipse 1" cx="7.5" cy="7.5" r="7.5" transform="translate(953 534)" fill="#fff"/>
      <g id="Ellipse_2" data-name="Ellipse 2" transform="translate(822 401)" fill="none" stroke="#fff" stroke-width="5">
        <circle cx="137.5" cy="137.5" r="137.5" stroke="none"/>
        <circle cx="137.5" cy="137.5" r="135" fill="none"/>
      </g>
    </g>
    <g id="Right_Side">
      <g id="Penalty_Box_Right" transform="translate(0 -1)">
        <line id="Line_3" data-name="Line 3" x2="235" y2="1" transform="translate(1437 818.5)" fill="none" stroke="#fff" stroke-width="5"/>
        <line id="Line_4" data-name="Line 4" y2="564" transform="translate(1439.5 253.5)" fill="none" stroke="#fff" stroke-width="5"/>
        <line id="Line_2" data-name="Line 2" x2="235" y2="1" transform="translate(1437.5 255.5)" fill="none" stroke="#fff" stroke-width="5"/>
        <circle id="Ellipse_3" data-name="Ellipse 3" cx="7.5" cy="7.5" r="7.5" transform="translate(1513 534)" fill="#fff"/>
        <g id="Goal_Right" transform="translate(1670 471)" fill="none" stroke="#fff" stroke-width="5">
          <rect width="19" height="140" stroke="none"/>
          <rect x="2.5" y="2.5" width="14" height="135" fill="none"/>
        </g>
      </g>
      <g id="Goal_Box_Right" transform="translate(148.78 150.303)">
        <line id="Line_3-2" data-name="Line 3" x2="86.037" y2="0.366" transform="translate(1437 518.979)" fill="none" stroke="#fff" stroke-width="5"/>
        <line id="Line_4-2" data-name="Line 4" y2="265.113" transform="translate(1437.915 253.5)" fill="none" stroke="#fff" stroke-width="5"/>
        <line id="Line_2-2" data-name="Line 2" x2="86.037" y2="0.366" transform="translate(1437.183 254.232)" fill="none" stroke="#fff" stroke-width="5"/>
      </g>
      <g id="Penalty_Arc_Right" transform="translate(1385 404)" fill="none">
        <path d="M57,236.261h0v0a122.6,122.6,0,0,1-41.341-43.423A121.9,121.9,0,0,1,33.645,48.873,122.651,122.651,0,0,1,57,29.739Z" stroke="none"/>
        <path d="M 51.99970626831055 226.7577362060547 L 51.99970626831055 39.24193572998047 C 46.738525390625 43.17696762084961 41.80540084838867 47.55450439453125 37.26554870605469 52.32107925415039 C 30.5713939666748 59.3494873046875 24.76645660400391 67.18839263916016 20.01201820373535 75.62001800537109 C 15.17748737335205 84.19383239746094 11.44626903533936 93.35314178466797 8.922050476074219 102.8436431884766 C 6.319581508636475 112.628173828125 5.000019073486328 122.774299621582 5.000019073486328 133.0001678466797 C 5.000019073486328 143.2260437011719 6.319581508636475 153.3721771240234 8.922050476074219 163.1567077636719 C 11.4463005065918 172.6471405029297 15.17748737335205 181.8064270019531 20.01201820373535 190.3800811767578 C 24.7663631439209 198.8115539550781 30.5713005065918 206.6504211425781 37.26554870605469 213.6789245605469 C 41.80574798583984 218.4457855224609 46.73862457275391 222.8230133056641 51.99970626831055 226.7577362060547 M 56.99970626831055 236.2608337402344 L 56.99770736694336 236.2590179443359 C 48.46976852416992 230.8799285888672 40.61261367797852 224.4427947998047 33.64498901367188 217.1273345947266 C 26.66595649719238 209.7998352050781 20.61383056640625 201.6270141601562 15.65670680999756 192.8359527587891 C 10.61448764801025 183.8939514160156 6.722925186157227 174.3408050537109 4.090050220489502 164.44189453125 C 1.376081466674805 154.2381744384766 1.892089858301915e-05 143.6596374511719 1.892089858301915e-05 133.0001678466797 C 1.892089858301915e-05 122.3407363891602 1.376081466674805 111.7621765136719 4.090050220489502 101.5584259033203 C 6.722925186157227 91.65945434570312 10.61448764801025 82.10626983642578 15.65670680999756 73.16417694091797 C 20.61392593383789 64.3729248046875 26.66604995727539 56.20008087158203 33.64498901367188 48.87267303466797 C 40.6130485534668 41.55661010742188 48.47070693969727 35.11907958984375 56.99970626831055 29.73895645141602 L 56.99970626831055 236.2608337402344 Z" stroke="none" fill="#fff"/>
      </g>
    </g>
    <g id="Left_Side">
      <g id="Penalty_Box_Left" transform="translate(1919.049 1082.5) rotate(-180)">
        <line id="Line_3-3" data-name="Line 3" x2="235" y2="1" transform="translate(1437 818.5)" fill="none" stroke="#fff" stroke-width="5"/>
        <line id="Line_4-3" data-name="Line 4" y2="564" transform="translate(1439.5 253.5)" fill="none" stroke="#fff" stroke-width="5"/>
        <line id="Line_2-3" data-name="Line 2" x2="235" y2="1" transform="translate(1437.5 255.5)" fill="none" stroke="#fff" stroke-width="5"/>
        <circle id="Ellipse_3-2" data-name="Ellipse 3" cx="7.5" cy="7.5" r="7.5" transform="translate(1513 534)" fill="#fff"/>
        <g id="Goal_Right-2" data-name="Goal_Right" transform="translate(1670 471)" fill="none" stroke="#fff" stroke-width="5">
          <rect width="19" height="140" stroke="none"/>
          <rect x="2.5" y="2.5" width="14" height="135" fill="none"/>
        </g>
      </g>
      <g id="Goal_Box_Left" transform="translate(1770.269 931.197) rotate(-180)">
        <line id="Line_3-4" data-name="Line 3" x2="86.037" y2="0.366" transform="translate(1437 518.979)" fill="none" stroke="#fff" stroke-width="5"/>
        <line id="Line_4-4" data-name="Line 4" y2="265.113" transform="translate(1437.915 253.5)" fill="none" stroke="#fff" stroke-width="5"/>
        <line id="Line_2-4" data-name="Line 2" x2="86.037" y2="0.366" transform="translate(1437.183 254.232)" fill="none" stroke="#fff" stroke-width="5"/>
      </g>
      <g id="Penalty_Arc_Left" transform="translate(534 674.891) rotate(180)" fill="none">
        <path d="M57,236.261h0v0a122.6,122.6,0,0,1-41.341-43.423A121.9,121.9,0,0,1,33.645,48.873,122.651,122.651,0,0,1,57,29.739Z" stroke="none"/>
        <path d="M 51.99970626831055 226.7577362060547 L 51.99970626831055 39.24193572998047 C 46.738525390625 43.17696762084961 41.80540084838867 47.55450439453125 37.26554870605469 52.32107925415039 C 30.5713939666748 59.3494873046875 24.76645660400391 67.18839263916016 20.01201820373535 75.62001800537109 C 15.17748737335205 84.19383239746094 11.44626903533936 93.35314178466797 8.922050476074219 102.8436431884766 C 6.319581508636475 112.628173828125 5.000019073486328 122.774299621582 5.000019073486328 133.0001678466797 C 5.000019073486328 143.2260437011719 6.319581508636475 153.3721771240234 8.922050476074219 163.1567077636719 C 11.4463005065918 172.6471405029297 15.17748737335205 181.8064270019531 20.01201820373535 190.3800811767578 C 24.7663631439209 198.8115539550781 30.5713005065918 206.6504211425781 37.26554870605469 213.6789245605469 C 41.80574798583984 218.4457855224609 46.73862457275391 222.8230133056641 51.99970626831055 226.7577362060547 M 56.99970626831055 236.2608337402344 L 56.99770736694336 236.2590179443359 C 48.46976852416992 230.8799285888672 40.61261367797852 224.4427947998047 33.64498901367188 217.1273345947266 C 26.66595649719238 209.7998352050781 20.61383056640625 201.6270141601562 15.65670680999756 192.8359527587891 C 10.61448764801025 183.8939514160156 6.722925186157227 174.3408050537109 4.090050220489502 164.44189453125 C 1.376081466674805 154.2381744384766 1.892089858301915e-05 143.6596374511719 1.892089858301915e-05 133.0001678466797 C 1.892089858301915e-05 122.3407363891602 1.376081466674805 111.7621765136719 4.090050220489502 101.5584259033203 C 6.722925186157227 91.65945434570312 10.61448764801025 82.10626983642578 15.65670680999756 73.16417694091797 C 20.61392593383789 64.3729248046875 26.66604995727539 56.20008087158203 33.64498901367188 48.87267303466797 C 40.6130485534668 41.55661010742188 48.47070693969727 35.11907958984375 56.99970626831055 29.73895645141602 L 56.99970626831055 236.2608337402344 Z" stroke="none" fill="#fff"/>
      </g>
    </g>
    <g id="Corners">
      <g id="Corner_DownRight" transform="translate(1673 1004.956) rotate(180)" fill="none">
        <path d="M0,30.956H0V0H24.85A29.945,29.945,0,0,1,25,3C25,17.85,14.02,30.129,0,30.956Z" stroke="none"/>
        <path d="M 3.001060247421265 27.54364585876465 C 13.8795919418335 25.30463409423828 22.001220703125 15.11094188690186 22.001220703125 3.000600337982178 C 22.001220703125 3.000380516052246 22.001220703125 3.00022029876709 22.001220703125 3.000000476837158 L 3.001060247421265 3.000000476837158 L 3.001060247421265 27.54364585876465 M 3.51562505329639e-07 30.9564208984375 L 0.001060351612977684 30.95434951782227 L 0.001060351612977684 4.492187599680619e-07 L 24.85037040710449 4.492187599680619e-07 C 24.9507999420166 0.9933304786682129 25.001220703125 2.002570390701294 25.001220703125 3.000600337982178 C 25.001220703125 17.84961128234863 14.01984024047852 30.12924003601074 0.001060351612977684 30.95635986328125 L 3.51562505329639e-07 30.9564208984375 Z M 0.0009403515723533928 30.95436096191406 L 0.001060351612977684 30.95434951782227 L 0.0009403515723533928 30.95436096191406 Z" stroke="none" fill="#fff"/>
      </g>
      <g id="Corner_DownLeft" transform="translate(247.999 974)" fill="none">
        <path d="M0,0H0V30.956H24.85a29.945,29.945,0,0,0,.151-3C25,13.107,14.02.827,0,0Z" stroke="none"/>
        <path d="M 3.001054763793945 3.412775039672852 L 3.001054763793945 27.9564208984375 L 22.00124549865723 27.9564208984375 C 22.00124549865723 27.95619964599609 22.00124549865723 27.95603942871094 22.00124549865723 27.95582008361816 C 22.00124549865723 15.84547901153564 13.87960433959961 5.651784896850586 3.001054763793945 3.412775039672852 M -3.814697265625e-06 0 L 0.001054763793945312 6.103515625e-05 C 14.01985549926758 0.8271808624267578 25.00124549865723 13.10680961608887 25.00124549865723 27.95582008361816 C 25.00124549865723 28.95384979248047 24.95083618164062 29.96309089660645 24.85040473937988 30.9564208984375 L 0.001054763793945312 30.9564208984375 L -3.814697265625e-06 0 Z M 0.0009365081787109375 0.0020599365234375 L 0.001054763793945312 0.002071380615234375 L 0.0009365081787109375 0.0020599365234375 Z" stroke="none" fill="#fff"/>
      </g>
      <g id="Corner_UpperRight" transform="translate(1672.999 106.456) rotate(180)" fill="none">
        <path d="M0,0H0V30.956H24.85a29.945,29.945,0,0,0,.151-3C25,13.107,14.02.827,0,0Z" stroke="none"/>
        <path d="M 3.001060485839844 3.412775039672852 L 3.001060485839844 27.9564208984375 L 22.001220703125 27.9564208984375 C 22.001220703125 27.95619964599609 22.001220703125 27.95603942871094 22.001220703125 27.95582008361816 C 22.001220703125 15.84547901153564 13.8795919418335 5.651786804199219 3.001060485839844 3.412775039672852 M 0 0 L 0.00106048583984375 6.103515625e-05 C 14.01984024047852 0.8271808624267578 25.001220703125 13.10680961608887 25.001220703125 27.95582008361816 C 25.001220703125 28.95384979248047 24.9507999420166 29.96309089660645 24.85037040710449 30.9564208984375 L 0.00106048583984375 30.9564208984375 L 0 0 Z M 0.0009403228759765625 0.0020599365234375 L 0.00106048583984375 0.002071380615234375 L 0.0009403228759765625 0.0020599365234375 Z" stroke="none" fill="#fff"/>
      </g>
      <g id="Corner_UpperLeft" transform="translate(210 43)" fill="none">
        <path d="M36,61.956h0V31H60.849A29.945,29.945,0,0,1,61,34c0,14.849-10.981,27.129-25,27.956Z" stroke="none"/>
        <path d="M 39 58.54328918457031 C 49.87855529785156 56.30427551269531 58.00019836425781 46.11056137084961 58.00019836425781 34.00020217895508 C 58.00019836425781 33.99998474121094 58.00019836425781 33.99982452392578 58.00019836425781 33.99960327148438 L 39 33.99960327148438 L 39 58.54328918457031 M 35.99893951416016 61.95606231689453 L 36 61.9539909362793 L 36 30.99960327148438 L 60.84934997558594 30.99960327148438 C 60.94977951049805 31.99293327331543 61.00019836425781 33.00217437744141 61.00019836425781 34.00020217895508 C 61.00019836425781 48.8492317199707 50.018798828125 61.12888336181641 36 61.95600128173828 L 35.99893951416016 61.95606231689453 Z M 35.9998779296875 61.95400238037109 L 36 61.9539909362793 L 35.9998779296875 61.95400238037109 Z" stroke="none" fill="#fff"/>
      </g>
    </g>
  </g>
</svg>
