<svg xmlns="http://www.w3.org/2000/svg" width="61.757" height="70" viewBox="0 0 61.757 70">
  <g id="hurdle" transform="translate(-211 1257)">
    <path id="Path_75" data-name="Path 75" d="M257.345-1246.378c-7.595,5.838-13.959,10.723-14.149,10.858s-1.115.845-2.061,1.581-3.568,2.757-5.824,4.493l-4.1,3.155-.007,4.372v4.378h1.52l1.351-1.034c.743-.568,1.466-1.115,1.608-1.223l.25-.189v12.081l-.649.372c-.764.432-.865.574-.824,1.149.041.608.4.858.757.547a4.843,4.843,0,0,1,.432-.3l.284-.182v3.426l.236.162.236.162v12.6H213.412l-1.209.784-1.2.784V-1187h28.615l.784-.784.784-.784-.034-.682a2.657,2.657,0,0,0-.095-.73c-.041-.027,5.8-4.547,12.966-10.047l13.027-10.013h2.527l.953-.824c.777-.669.946-.851.919-.966a4.476,4.476,0,0,1-.041-.7v-.554h-1.757v-12.507l.236-.2.236-.209v-4.716l.378-.21a1.761,1.761,0,0,0,.466-.358c.3-.473.1-1.324-.318-1.324a.706.706,0,0,0-.331.142l-.2.135v-13.838l1.318-1.068,1.318-1.074V-1257h-1.608Zm9.095,20.541.236.156v12.6H243.554l-1.142.791-1.149.791.02.716.02.71h11.331c6.236,0,11.338.013,11.338.034s-.054.068-.122.108-1.9,1.446-4.074,3.115l-15.365,11.8c-2.081,1.594-4.047,3.108-4.372,3.365a7.753,7.753,0,0,1-.628.459c-.02,0-.034-2.541-.034-5.642v-5.649l.236-.2.236-.209v-20.047l2.419-1.845c1.324-1.02,6.257-4.8,10.959-8.405s9.23-7.074,10.068-7.716,1.824-1.4,2.2-1.689l.676-.527.02,8.568.013,8.567Z" fill="#0a00ff"/>
  </g>
</svg>
