<svg xmlns="http://www.w3.org/2000/svg" xmlns:xlink="http://www.w3.org/1999/xlink" width="290.088" height="285.088" viewBox="0 0 290.088 285.088">
  <defs>
    <style>
      .cls-1 {
        fill: #fff;
      }

      .cls-2 {
        fill: #5f9131;
      }

      .cls-3 {
        fill: #497523;
      }

      .cls-4 {
        fill: #285300;
      }

      .cls-5 {
        clip-path: url(#clip-path);
      }
    </style>
    <clipPath id="clip-path">
      <rect id="Rectangle_5" data-name="Rectangle 5" class="cls-1" width="197.054" height="219.194"/>
    </clipPath>
  </defs>
  <g id="Logo" transform="translate(-193.912 -1194.412)">
    <g id="BG">
      <path id="Color_BG4" class="cls-2" d="M0,0H12A131,131,0,0,1,143,131v14A131,131,0,0,1,12,276H0a0,0,0,0,1,0,0V0A0,0,0,0,1,0,0Z" transform="translate(337 1199)"/>
      <path id="Color_BG4-2" data-name="Color_BG4" class="cls-3" d="M131,0h7a0,0,0,0,1,0,0V276a0,0,0,0,1,0,0h-7A131,131,0,0,1,0,145V131A131,131,0,0,1,131,0Z" transform="translate(199 1199)"/>
    </g>
    <g id="Middle_Pitch" transform="translate(-628.088 793.412)">
      <path id="Ellipse_2" data-name="Ellipse 2" class="cls-4" d="M145.044,5A143.578,143.578,0,0,0,116.8,7.8,140.5,140.5,0,0,0,45.987,45.316a139.125,139.125,0,0,0-17.1,20.362,136.795,136.795,0,0,0-12.9,23.357,135.5,135.5,0,0,0,0,107.016,136.8,136.8,0,0,0,12.9,23.357,139.125,139.125,0,0,0,17.1,20.362A140.556,140.556,0,0,0,116.8,277.29a143.975,143.975,0,0,0,56.491,0A140.5,140.5,0,0,0,244.1,239.771a139.126,139.126,0,0,0,17.1-20.362,136.8,136.8,0,0,0,12.9-23.357,135.5,135.5,0,0,0,0-107.016,136.795,136.795,0,0,0-12.9-23.357,139.126,139.126,0,0,0-17.1-20.362A140.556,140.556,0,0,0,173.29,7.8,143.578,143.578,0,0,0,145.044,5m0-5c80.106,0,145.044,63.819,145.044,142.544S225.149,285.088,145.044,285.088,0,221.269,0,142.544,64.938,0,145.044,0Z" transform="translate(822 401)"/>
    </g>
    <g id="MCT_Logo" transform="translate(240.429 1227.859)">
      <g id="Group_1" data-name="Group 1" class="cls-5">
        <path id="Path_1" data-name="Path 1" class="cls-1" d="M168.736,258.252,135.1,276.816l-33.633-18.564v38.785l20.153,11.636a26.958,26.958,0,0,0,26.958,0l20.153-11.636Z" transform="translate(-36.576 -93.09)"/>
        <path id="Path_2" data-name="Path 2" class="cls-1" d="M183.574,44.929,112.005,3.611a26.957,26.957,0,0,0-26.958,0L13.479,44.929A26.964,26.964,0,0,0,0,68.276v82.641a26.963,26.963,0,0,0,13.479,23.344l12.459,7.194V72.836a5.808,5.808,0,0,1,8.714-5.029l63.923,36.009L162.4,67.807a5.808,5.808,0,0,1,8.714,5.029V181.455l12.459-7.194a26.956,26.956,0,0,0,13.479-23.344V68.276a26.958,26.958,0,0,0-13.479-23.348" transform="translate(0 0)"/>
      </g>
    </g>
  </g>
</svg>
