<?xml version="1.0" encoding="utf-8"?>
<!-- Generator: Adobe Illustrator 27.1.1, SVG Export Plug-In . SVG Version: 6.00 Build 0)  -->
<svg version="1.1" id="Laag_1" xmlns="http://www.w3.org/2000/svg" xmlns:xlink="http://www.w3.org/1999/xlink" x="0px" y="0px"
	 viewBox="0 0 60 60" style="enable-background:new 0 0 60 60;" xml:space="preserve">
<style type="text/css">
	.st0{fill:#0EA5E9;}
	.st1{fill:#FFFFFF;}
	.st2{font-family:'Roboto-Bold';}
	.st3{font-size:32px;}
</style>
<circle id="Ellipse_10" class="st0" cx="30" cy="30" r="30"/>
<path id="Ellipse_10_-_Outline" class="st1" d="M30,5C16.19,5.01,5,16.22,5.01,30.03c0.01,10.04,6.02,19.1,15.26,23.01
	c12.76,5.3,27.39-0.75,32.68-13.51c5.25-12.65-0.65-27.16-13.22-32.56C36.65,5.66,33.34,4.99,30,5 M30,0c16.57,0,30,13.43,30,30
	S46.57,60,30,60S0,46.57,0,30S13.43,0,30,0z"/>
<text transform="matrix(1 0 0 1 11.5827 39.6713)" class="st1 st2 st3">10</text>
</svg>
