<svg xmlns="http://www.w3.org/2000/svg" width="45" height="45" viewBox="0 0 45 45">
  <defs>
    <style>
      .cls-1 {
        fill: #fff;
      }
    </style>
  </defs>
  <g id="SoccerBall" transform="translate(0 0)">
    <circle id="Ellipse_13" data-name="Ellipse 13" cx="22.5" cy="22.5" r="22.5" transform="translate(0 0)"/>
    <path id="Path_4" data-name="Path 4" class="cls-1" d="M28.716,9.2a20.412,20.412,0,0,0-12.758,5.057h6.263l6.495-3.34Zm1.392,0v1.716l6.495,3.34h6.263A20.412,20.412,0,0,0,30.108,9.2ZM14.521,15.648a20.412,20.412,0,0,0-4.639,7.933l3.711,6.4,5.335-.835,4.871-8.4-1.948-5.1h-7.33Zm22.454,0-1.948,5.1,4.871,8.4,5.335.835L48.9,23.628A20.412,20.412,0,0,0,44.3,15.648h-7.33Zm-11.6,6.031-4.686,8.165,4.129,7.144h9.186l4.129-7.144-4.686-8.165ZM9.418,25.53a20.144,20.144,0,0,0,1.995,13.639l1.716-1.021L12.8,31.422Zm39.99.046L46.02,31.422,45.7,38.148l1.716,1.021a20.012,20.012,0,0,0,1.995-13.593ZM24.82,38.844l-3.572,4.407,3.572,6.17a19.224,19.224,0,0,0,9.186,0l3.572-6.17-3.572-4.407Zm-11.088.6-1.624.928a20.412,20.412,0,0,0,10.763,8.536L19.624,43.2l-5.892-3.758Zm31.361,0L39.2,43.2l-3.247,5.66a20.412,20.412,0,0,0,10.763-8.49l-1.624-.928Z" transform="translate(-6.912 -7.066)"/>
  </g>
</svg>
