<svg xmlns="http://www.w3.org/2000/svg" width="1491" height="985" viewBox="0 0 1491 985">
  <g id="FootballPitchQatar" transform="translate(-215 -49)">
    <g id="Background_Pitch">
      <rect id="Green_BG" width="1491" height="985" transform="translate(215 49)" fill="#5f9131"/>
      <g id="Pitch_BG" transform="translate(245 73)" fill="#5f9131" stroke="#fff" stroke-width="6">
        <rect width="1430" height="935" stroke="none"/>
        <rect x="3" y="3" width="1424" height="929" fill="none"/>
      </g>
      <rect id="Color_BG5" width="143" height="923" transform="translate(388 79)" fill="#497523"/>
      <rect id="Color_BG4" width="143" height="923" transform="translate(674 79)" fill="#497523"/>
      <rect id="Color_BG3" width="143" height="923" transform="translate(960 79)" fill="#497523"/>
      <rect id="Color_BG2" width="143" height="923" transform="translate(1246 79)" fill="#497523"/>
      <rect id="Color_BG1" width="143" height="923" transform="translate(1526 79)" fill="#497523"/>
      <rect id="Color_BG4-2" data-name="Color_BG4" width="143" height="923" transform="translate(674 79)" fill="#497523"/>
    </g>
    <g id="Corners">
      <g id="Corner_DownRight" transform="translate(1673 1004.956) rotate(180)" fill="none">
        <path d="M0,30.956H0V0H24.85A29.945,29.945,0,0,1,25,3C25,17.85,14.02,30.129,0,30.956Z" stroke="none"/>
        <path d="M 3.001060247421265 27.54364585876465 C 13.8795919418335 25.30463409423828 22.001220703125 15.11094188690186 22.001220703125 3.000600337982178 C 22.001220703125 3.000380516052246 22.001220703125 3.00022029876709 22.001220703125 3.000000476837158 L 3.001060247421265 3.000000476837158 L 3.001060247421265 27.54364585876465 M 3.51562505329639e-07 30.9564208984375 L 0.001060351612977684 30.95434951782227 L 0.001060351612977684 4.492187599680619e-07 L 24.85037040710449 4.492187599680619e-07 C 24.9507999420166 0.9933304786682129 25.001220703125 2.002570390701294 25.001220703125 3.000600337982178 C 25.001220703125 17.84961128234863 14.01984024047852 30.12924003601074 0.001060351612977684 30.95635986328125 L 3.51562505329639e-07 30.9564208984375 Z M 0.0009403515723533928 30.95436096191406 L 0.001060351612977684 30.95434951782227 L 0.0009403515723533928 30.95436096191406 Z" stroke="none" fill="#fff"/>
      </g>
      <g id="Corner_DownLeft" transform="translate(247.999 974)" fill="none">
        <path d="M0,0H0V30.956H24.85a29.945,29.945,0,0,0,.151-3C25,13.107,14.02.827,0,0Z" stroke="none"/>
        <path d="M 3.001054763793945 3.412775039672852 L 3.001054763793945 27.9564208984375 L 22.00124549865723 27.9564208984375 C 22.00124549865723 27.95619964599609 22.00124549865723 27.95603942871094 22.00124549865723 27.95582008361816 C 22.00124549865723 15.84547901153564 13.87960433959961 5.651784896850586 3.001054763793945 3.412775039672852 M -3.814697265625e-06 0 L 0.001054763793945312 6.103515625e-05 C 14.01985549926758 0.8271808624267578 25.00124549865723 13.10680961608887 25.00124549865723 27.95582008361816 C 25.00124549865723 28.95384979248047 24.95083618164062 29.96309089660645 24.85040473937988 30.9564208984375 L 0.001054763793945312 30.9564208984375 L -3.814697265625e-06 0 Z M 0.0009365081787109375 0.0020599365234375 L 0.001054763793945312 0.002071380615234375 L 0.0009365081787109375 0.0020599365234375 Z" stroke="none" fill="#fff"/>
      </g>
      <g id="Corner_UpperRight" transform="translate(1672.999 106.456) rotate(180)" fill="none">
        <path d="M0,0H0V30.956H24.85a29.945,29.945,0,0,0,.151-3C25,13.107,14.02.827,0,0Z" stroke="none"/>
        <path d="M 3.001060485839844 3.412775039672852 L 3.001060485839844 27.9564208984375 L 22.001220703125 27.9564208984375 C 22.001220703125 27.95619964599609 22.001220703125 27.95603942871094 22.001220703125 27.95582008361816 C 22.001220703125 15.84547901153564 13.8795919418335 5.651786804199219 3.001060485839844 3.412775039672852 M 0 0 L 0.00106048583984375 6.103515625e-05 C 14.01984024047852 0.8271808624267578 25.001220703125 13.10680961608887 25.001220703125 27.95582008361816 C 25.001220703125 28.95384979248047 24.9507999420166 29.96309089660645 24.85037040710449 30.9564208984375 L 0.00106048583984375 30.9564208984375 L 0 0 Z M 0.0009403228759765625 0.0020599365234375 L 0.00106048583984375 0.002071380615234375 L 0.0009403228759765625 0.0020599365234375 Z" stroke="none" fill="#fff"/>
      </g>
      <g id="Corner_UpperLeft" transform="translate(210 43)" fill="none">
        <path d="M36,61.956h0V31H60.849A29.945,29.945,0,0,1,61,34c0,14.849-10.981,27.129-25,27.956Z" stroke="none"/>
        <path d="M 39 58.54328918457031 C 49.87855529785156 56.30427551269531 58.00019836425781 46.11056137084961 58.00019836425781 34.00020217895508 C 58.00019836425781 33.99998474121094 58.00019836425781 33.99982452392578 58.00019836425781 33.99960327148438 L 39 33.99960327148438 L 39 58.54328918457031 M 35.99893951416016 61.95606231689453 L 36 61.9539909362793 L 36 30.99960327148438 L 60.84934997558594 30.99960327148438 C 60.94977951049805 31.99293327331543 61.00019836425781 33.00217437744141 61.00019836425781 34.00020217895508 C 61.00019836425781 48.8492317199707 50.018798828125 61.12888336181641 36 61.95600128173828 L 35.99893951416016 61.95606231689453 Z M 35.9998779296875 61.95400238037109 L 36 61.9539909362793 L 35.9998779296875 61.95400238037109 Z" stroke="none" fill="#fff"/>
      </g>
    </g>
  </g>
</svg>
